<?xml version="1.0" standalone="no"?>
<!DOCTYPE svg PUBLIC "-//W3C//DTD SVG 1.1//EN" "http://www.w3.org/Graphics/SVG/1.1/DTD/svg11.dtd" >
<!--
2013-9-30: Created.
-->
<svg>
<metadata>
Created by iconfont
</metadata>
<defs>

<font id="iconfont" horiz-adv-x="1024" >
  <font-face
    font-family="iconfont"
    font-weight="500"
    font-stretch="normal"
    units-per-em="1024"
    ascent="896"
    descent="-128"
  />
    <missing-glyph />
    
    <glyph glyph-name="shubiao-" unicode="&#59014;" d="M574.54-64.22H448.18c-124.62 0-226 101.38-226 226V606.13c0 124.62 101.38 226 226 226h126.36c124.62 0 226-101.38 226-226v-444.36c0-124.61-101.38-225.99-226-225.99zM448.18 817.55c-116.57 0-211.42-94.84-211.42-211.42v-444.36c0-116.57 94.84-211.42 211.42-211.42h126.36C691.11-49.64 786 45.2 786 161.77V606.13c0 116.57-94.84 211.42-211.42 211.42zM519.92 500.73H502.8a26.76 26.76 0 0 0-26.74 26.73V659.9a26.76 26.76 0 0 0 26.74 26.73h17.11a26.76 26.76 0 0 0 26.74-26.73v-132.44a26.76 26.76 0 0 0-26.73-26.73zM502.8 672.05a12.17 12.17 0 0 1-12.16-12.15v-132.44a12.16 12.16 0 0 1 12.16-12.15h17.11a12.16 12.16 0 0 1 12.16 12.15V659.9a12.17 12.17 0 0 1-12.16 12.15z"  horiz-adv-x="1024" />

    
    <glyph glyph-name="icon-" unicode="&#59174;" d="M512 844.8A317.8496 317.8496 0 0 0 829.44 527.36v-286.72a317.44 317.44 0 0 0-634.88 0V527.36A317.8496 317.8496 0 0 0 512 844.8M512 896A369.664 369.664 0 0 1 143.36 527.36v-286.72a368.64 368.64 0 0 1 737.28 0V527.36A369.664 369.664 0 0 1 512 896zM512 512a25.6 25.6 0 0 0-25.6 25.6V696.32a25.6 25.6 0 0 0 51.2 0v-158.72A25.6 25.6 0 0 0 512 512z"  horiz-adv-x="1024" />

    
    <glyph glyph-name="cloudy-2-line" unicode="&#58881;" d="M725.333333 0H298.666667A256 256 0 0 0 213.674667 497.536a298.666667 298.666667 0 1 0 596.650666 0A256 256 0 0 0 725.333333 0zM298.666667 85.333333h426.666666a170.666667 170.666667 0 1 1-18.176 340.394667 213.333333 213.333333 0 1 1-390.314666 0A170.666667 170.666667 0 1 1 298.666667 85.333333z"  horiz-adv-x="1024" />

    
    <glyph glyph-name="cloudy-line" unicode="&#58883;" d="M405.333333 640a277.333333 277.333333 0 0 1 0-554.666667h298.666667a192 192 0 1 1-40.832 379.648A277.418667 277.418667 0 0 1 405.333333 640z m298.666667-640h-298.666667a362.666667 362.666667 0 1 0 307.84 554.538667A277.333333 277.333333 0 0 0 704 0z"  horiz-adv-x="1024" />

    
    <glyph glyph-name="drizzle-fill" unicode="&#58884;" d="M469.333333 128v-128H384v128a341.333333 341.333333 0 1 0 318.208 465.109333A234.666667 234.666667 0 1 0 746.666667 128H469.333333z m85.333334-85.333333h85.333333v-128h-85.333333v128z"  horiz-adv-x="1024" />

    
    <glyph glyph-name="cloudy-fill" unicode="&#58886;" d="M384 0.597333a362.666667 362.666667 0 1 0 329.173333 553.941334A277.333333 277.333333 0 0 0 725.333333 0.810667V0H384v0.597333z"  horiz-adv-x="1024" />

    
    <glyph glyph-name="drizzle-line" unicode="&#58888;" d="M725.333333 128v85.333333h21.333334a149.333333 149.333333 0 1 1-106.666667 253.866667V469.333333a256 256 0 1 1-341.333333-241.450666v-89.130667a341.333333 341.333333 0 1 0 403.541333 454.4A234.666667 234.666667 0 1 0 746.666667 128l-21.333334-0.042667z m-341.333333 85.333333h85.333333v-170.666666H384v170.666666z m170.666667-128h85.333333v-170.666666h-85.333333v170.666666z"  horiz-adv-x="1024" />

    
    <glyph glyph-name="flashlight-fill" unicode="&#58890;" d="M554.666667 469.333333h298.666666l-384-554.666666v384H170.666667l384 554.666666z"  horiz-adv-x="1024" />

    
    <glyph glyph-name="fahrenheit-fill" unicode="&#58891;" d="M512 384h298.666667v-85.333333h-298.666667v-298.666667h-85.333333V554.666667a170.666667 170.666667 0 0 0 170.666666 170.666666h298.666667v-85.333333h-298.666667a85.333333 85.333333 0 0 1-85.333333-85.333333v-170.666667z m-320 85.333333a149.333333 149.333333 0 1 0 0 298.666667 149.333333 149.333333 0 0 0 0-298.666667z m0 85.333334a64 64 0 1 1 0 128 64 64 0 0 1 0-128z"  horiz-adv-x="1024" />

    
    <glyph glyph-name="earthquake-fill" unicode="&#58892;" d="M483.285333 827.221333a42.666667 42.666667 0 0 0 53.162667 3.413334l4.266667-3.413334L981.333333 426.666667h-128v-384a42.666667 42.666667 0 0 0-37.674666-42.368L810.666667 0h-277.333334l106.666667 170.666667-149.333333 128 170.666666 128L554.666667 512l21.333333 128-128-128 106.666667-85.333333-213.333334-128 160-149.333334L362.666667 0H213.333333a42.666667 42.666667 0 0 0-42.368 37.674667L170.666667 42.666667v384H42.666667l440.618666 400.554666z"  horiz-adv-x="1024" />

    
    <glyph glyph-name="flood-fill" unicode="&#58893;" d="M682.666667 150.528A255.061333 255.061333 0 0 1 853.333333 85.333333h85.333334v-85.333333h-85.333334a339.754667 339.754667 0 0 0-170.666666 45.653333A339.626667 339.626667 0 0 0 512 0a339.754667 339.754667 0 0 0-170.666667 45.653333A339.626667 339.626667 0 0 0 170.666667 0H85.333333v85.333333h85.333334c65.578667 0 125.44 24.661333 170.666666 65.194667A255.061333 255.061333 0 0 1 512 85.333333c65.578667 0 125.44 24.661333 170.666667 65.194667z m-146.218667 680.106667l4.266667-3.413334L981.333333 426.666667h-128v-256a212.992 212.992 0 0 0-170.666666 85.333333 212.906667 212.906667 0 0 0-170.666667-85.333333 212.992 212.992 0 0 0-170.666667 85.333333 212.906667 212.906667 0 0 0-170.666666-85.333333l-0.042667 256H42.666667l440.618666 400.554666a42.666667 42.666667 0 0 0 48.64 6.186667l4.522667-2.773333z"  horiz-adv-x="1024" />

    
    <glyph glyph-name="flashlight-line" unicode="&#58897;" d="M554.666667 512h341.333333L469.333333-128v384H170.666667l384 640v-384z m-85.333334-85.333333V587.946667L321.365333 341.333333H554.666667v-187.477333L736.554667 426.666667H469.333333z"  horiz-adv-x="1024" />

    
    <glyph glyph-name="fahrenheit-line" unicode="&#58898;" d="M512 384h298.666667v-85.333333h-298.666667v-298.666667h-85.333333V554.666667a170.666667 170.666667 0 0 0 170.666666 170.666666h298.666667v-85.333333h-298.666667a85.333333 85.333333 0 0 1-85.333333-85.333333v-170.666667z m-320 85.333333a149.333333 149.333333 0 1 0 0 298.666667 149.333333 149.333333 0 0 0 0-298.666667z m0 85.333334a64 64 0 1 1 0 128 64 64 0 0 1 0-128z"  horiz-adv-x="1024" />

    
    <glyph glyph-name="earthquake-line" unicode="&#58899;" d="M213.333333 0a42.666667 42.666667 0 0 0-42.368 37.674667L170.666667 42.666667v384H42.666667l440.618666 400.554666a42.666667 42.666667 0 0 0 53.162667 3.413334l4.266667-3.413334L981.333333 426.666667h-128v-384a42.666667 42.666667 0 0 0-37.674666-42.368L810.666667 0H213.333333z m298.666667 738.048L256 505.344V85.333333h185.898667l59.434666 64L341.333333 298.666667l213.333334 128-106.666667 85.333333 128 128-21.333333-128 106.666666-85.333333-170.666666-128 149.333333-128-53.333333-85.333334H768V505.301333l-256 232.746667z"  horiz-adv-x="1024" />

    
    <glyph glyph-name="fire-line" unicode="&#58904;" d="M512-85.333333a320 320 0 0 1 320 320c0 36.949333-9.813333 72.405333-21.333333 105.386666-71.125333-70.272-125.141333-105.386667-162.133334-105.386666 170.453333 298.666667 76.8 426.666667-179.2 597.333333 21.333333-213.333333-119.296-310.357333-176.554666-364.245333A320 320 0 0 1 512-85.333333z m30.293333 757.973333c138.282667-117.333333 138.965333-208.512 32.128-395.690667-32.469333-56.874667 8.618667-127.616 74.112-127.616 29.354667 0 59.050667 8.533333 90.410667 25.386667a234.666667 234.666667 0 1 0-387.712 230.912c5.376 5.034667 32.64 29.226667 33.834667 30.293333 18.090667 16.213333 32.981333 30.592 47.701333 46.336 52.48 56.234667 90.197333 118.613333 109.482667 190.378667z"  horiz-adv-x="1024" />

    
    <glyph glyph-name="fire-fill" unicode="&#58905;" d="M512-85.333333a320 320 0 0 0-219.221333 553.088C350.037333 521.642667 490.666667 618.666667 469.333333 832c256-170.666667 384-341.333333 128-597.333333 42.666667 0 106.666667 0 213.333334 105.386666 11.52-32.981333 21.333333-68.437333 21.333333-105.386666A320 320 0 0 0 512-85.333333z"  horiz-adv-x="1024" />

    
    <glyph glyph-name="foggy-line" unicode="&#58906;" d="M67.584 341.034667a341.333333 341.333333 0 0 0 634.581333 252.074666 234.666667 234.666667 0 0 0 278.186667-252.074666h-85.888A149.333333 149.333333 0 0 1 640 467.2V469.333333a256 256 0 1 1-477.568-128.298666H67.584zM170.666667 85.333333h725.333333v-85.333333H170.666667v85.333333z m-85.333334 170.666667h896v-85.333333H85.333333v85.333333z"  horiz-adv-x="1024" />

    
    <glyph glyph-name="foggy-fill" unicode="&#58907;" d="M67.584 341.034667a341.333333 341.333333 0 0 0 634.581333 252.074666 234.666667 234.666667 0 0 0 278.186667-252.074666H67.584zM170.666667 85.333333h725.333333v-85.333333H170.666667v85.333333z m-85.333334 170.666667h896v-85.333333H85.333333v85.333333z"  horiz-adv-x="1024" />

    
    <glyph glyph-name="flood-line" unicode="&#58908;" d="M682.666667 150.528A255.061333 255.061333 0 0 1 853.333333 85.333333h85.333334v-85.333333h-85.333334a339.754667 339.754667 0 0 0-170.666666 45.653333A339.626667 339.626667 0 0 0 512 0a339.754667 339.754667 0 0 0-170.666667 45.653333A339.626667 339.626667 0 0 0 170.666667 0H85.333333v85.333333h85.333334c65.578667 0 125.44 24.661333 170.666666 65.194667A255.061333 255.061333 0 0 1 512 85.333333c65.578667 0 125.44 24.661333 170.666667 65.194667z m-146.218667 680.106667l4.266667-3.413334L981.333333 426.666667h-128v-256a255.573333 255.573333 0 0 0-85.333333 14.549333V505.301333l-256 232.746667-256-232.704 0.042667-320.085333a255.061333 255.061333 0 0 0-72.618667-14.293334L170.666667 170.666667v256H42.666667l440.618666 400.554666a42.666667 42.666667 0 0 0 53.162667 3.413334z"  horiz-adv-x="1024" />

    
    <glyph glyph-name="haze-line" unicode="&#58909;" d="M259.541333 341.333333a256 256 0 1 0 504.917334 0h-87.168a170.666667 170.666667 0 1 1-330.581334 0H259.541333zM85.333333 256h426.666667v-85.333333H85.333333v85.333333z m512 0h341.333334v-85.333333h-341.333334v85.333333z m85.333334-170.666667h170.666666v-85.333333h-170.666666v85.333333zM170.666667 85.333333h426.666666v-85.333333H170.666667v85.333333z m298.666666 768h85.333334v-128h-85.333334V853.333333zM149.973333 685.696l60.330667 60.330667L300.8 655.530667 240.469333 595.2 149.973333 685.653333zM813.653333 746.026667l60.330667-60.330667-90.496-90.496-60.330667 60.330667 90.496 90.496zM981.333333 426.666667v-85.333334h-128v85.333334h128zM170.666667 426.666667v-85.333334H42.666667v85.333334h128z"  horiz-adv-x="1024" />

    
    <glyph glyph-name="meteor-fill" unicode="&#58919;" d="M896 853.333333v-512A384 384 0 1 0 314.666667 670.805333L597.333333 834.005333v-118.186666L896 853.333333z m-384-298.666666a213.333333 213.333333 0 1 1 0-426.666667 213.333333 213.333333 0 0 1 0 426.666667z"  horiz-adv-x="1024" />

    
    <glyph glyph-name="hail-fill" unicode="&#58921;" d="M810.453333 136.789333a170.666667 170.666667 0 0 1-216.96 155.477334A170.709333 170.709333 0 0 1 256 256c0-46.08 18.261333-87.850667 47.872-118.528a341.333333 341.333333 0 1 0 398.293333 455.68 234.666667 234.666667 0 0 0 108.245334-456.362667zM426.666667 170.666667a85.333333 85.333333 0 1 0 0 170.666666 85.333333 85.333333 0 0 0 0-170.666666z m213.333333-128a85.333333 85.333333 0 1 0 0 170.666666 85.333333 85.333333 0 0 0 0-170.666666z m-213.333333-128a85.333333 85.333333 0 1 0 0 170.666666 85.333333 85.333333 0 0 0 0-170.666666z"  horiz-adv-x="1024" />

    
    <glyph glyph-name="heavy-showers-line" unicode="&#58922;" d="M213.333333 173.653333a341.333333 341.333333 0 1 0 488.874667 419.456A234.666667 234.666667 0 0 0 810.666667 136.832v90.88a149.333333 149.333333 0 1 1-170.666667 239.445333V469.333333a256 256 0 1 1-426.666667-190.805333v-104.874667zM298.666667 298.666667h85.333333v-256H298.666667v256z m341.333333 0h85.333333v-256h-85.333333v256z m-170.666667-128h85.333334v-256h-85.333334v256z"  horiz-adv-x="1024" />

    
    <glyph glyph-name="hail-line" unicode="&#58923;" d="M256 152.832A341.461333 341.461333 0 0 0 384 810.666667a341.461333 341.461333 0 0 0 318.208-217.557334A234.666667 234.666667 0 0 0 810.666667 136.832v90.88a149.333333 149.333333 0 1 1-170.666667 239.445333V469.333333a256 256 0 1 1-384-221.738666v-94.762667zM426.666667 170.666667a85.333333 85.333333 0 1 0 0 170.666666 85.333333 85.333333 0 0 0 0-170.666666z m213.333333-128a85.333333 85.333333 0 1 0 0 170.666666 85.333333 85.333333 0 0 0 0-170.666666z m-213.333333-128a85.333333 85.333333 0 1 0 0 170.666666 85.333333 85.333333 0 0 0 0-170.666666z"  horiz-adv-x="1024" />

    
    <glyph glyph-name="haze-2-line" unicode="&#58925;" d="M512 85.333333a64 64 0 1 0 0-128 64 64 0 0 0 0 128z m320 0a64 64 0 1 0 0-128 64 64 0 0 0 0 128z m-640 0a64 64 0 1 0 0-128 64 64 0 0 0 0 128zM725.333333 597.333333a213.333333 213.333333 0 0 0 0-426.666666c-78.677333 0-149.76 44.373333-213.333333 133.205333C448.426667 215.04 377.344 170.666667 298.666667 170.666667A213.333333 213.333333 0 0 0 298.666667 597.333333c78.677333 0 149.76-44.373333 213.333333-133.205333C575.573333 552.96 646.656 597.333333 725.333333 597.333333zM298.666667 512a128 128 0 0 1 0-256c53.504 0 107.093333 37.333333 160.384 121.770667l3.797333 6.272-3.84 6.186666c-51.072 80.896-102.4 118.613333-153.642667 121.6L298.666667 512z m426.666666 0c-53.504 0-107.093333-37.333333-160.384-121.770667l-3.84-6.229333 3.84-6.229333c51.114667-80.896 102.4-118.613333 153.685334-121.6L725.333333 256a128 128 0 0 1 0 256z m-213.333333 298.666667a64 64 0 1 0 0-128 64 64 0 0 0 0 128zM192 810.666667a64 64 0 1 0 0-128 64 64 0 0 0 0 128z m640 0a64 64 0 1 0 0-128 64 64 0 0 0 0 128z"  horiz-adv-x="1024" />

    
    <glyph glyph-name="haze-fill" unicode="&#58926;" d="M259.541333 341.333333a256 256 0 1 0 504.917334 0H259.541333zM85.333333 256h426.666667v-85.333333H85.333333v85.333333z m512 0h341.333334v-85.333333h-341.333334v85.333333z m85.333334-170.666667h170.666666v-85.333333h-170.666666v85.333333zM170.666667 85.333333h426.666666v-85.333333H170.666667v85.333333z m298.666666 768h85.333334v-128h-85.333334V853.333333zM149.973333 685.696l60.330667 60.330667L300.8 655.530667 240.469333 595.2 149.973333 685.653333zM813.653333 746.026667l60.330667-60.330667-90.496-90.496-60.330667 60.330667 90.496 90.496zM981.333333 426.666667v-85.333334h-128v85.333334h128zM170.666667 426.666667v-85.333334H42.666667v85.333334h128z"  horiz-adv-x="1024" />

    
    <glyph glyph-name="haze-2-fill" unicode="&#58927;" d="M512 85.333333a64 64 0 1 0 0-128 64 64 0 0 0 0 128z m320 0a64 64 0 1 0 0-128 64 64 0 0 0 0 128z m-640 0a64 64 0 1 0 0-128 64 64 0 0 0 0 128zM725.333333 597.333333a213.333333 213.333333 0 0 0 0-426.666666c-78.677333 0-149.76 44.373333-213.333333 133.205333C448.426667 215.04 377.344 170.666667 298.666667 170.666667A213.333333 213.333333 0 0 0 298.666667 597.333333c78.677333 0 149.76-44.373333 213.333333-133.205333C575.573333 552.96 646.656 597.333333 725.333333 597.333333z m-213.333333 213.333334a64 64 0 1 0 0-128 64 64 0 0 0 0 128zM192 810.666667a64 64 0 1 0 0-128 64 64 0 0 0 0 128z m640 0a64 64 0 1 0 0-128 64 64 0 0 0 0 128z"  horiz-adv-x="1024" />

    
    <glyph glyph-name="meteor-line" unicode="&#58928;" d="M896 853.333333v-512A384 384 0 1 0 314.666667 670.805333L597.333333 834.005333v-118.186666L896 853.333333z m-85.333333-133.205333l-298.666667-137.557333v103.68L366.805333 602.410667a298.538667 298.538667 0 0 1-153.258666-249.386667L213.333333 341.333333a298.666667 298.666667 0 0 1 597.162667-10.24L810.666667 341.333333V720.128zM512 554.666667a213.333333 213.333333 0 1 0 0-426.666667 213.333333 213.333333 0 0 0 0 426.666667z m0-85.333334a128 128 0 1 1 0-256 128 128 0 0 1 0 256z"  horiz-adv-x="1024" />

    
    <glyph glyph-name="heavy-showers-fill" unicode="&#58929;" d="M554.666667 128v-213.333333h-85.333334v213.333333H384v-128H298.666667v138.752a341.333333 341.333333 0 1 0 403.541333 454.4A234.666667 234.666667 0 1 0 746.666667 128l-21.333334-0.042667v-128h-85.333333v128h-85.333333z"  horiz-adv-x="1024" />

    
    <glyph glyph-name="moon-clear-line" unicode="&#58930;" d="M426.666667 640a341.333333 341.333333 0 0 1 510.08-296.789333C916.224 126.72 733.866667-42.666667 512-42.666667 276.352-42.666667 85.333333 148.352 85.333333 384c0 221.866667 169.386667 404.224 385.877334 424.746667A339.754667 339.754667 0 0 1 426.666667 640z m-256-256a341.333333 341.333333 0 0 1 341.333333-341.333333 341.589333 341.589333 0 0 1 296.832 172.586666c-13.482667-1.28-27.136-1.92-40.832-1.92-235.648 0-426.666667 191.018667-426.666667 426.666667 0 13.696 0.64 27.306667 1.92 40.832A341.589333 341.589333 0 0 1 170.666667 384z m604.330666 414.250667L810.666667 789.333333v-42.666666l-35.669334-8.917334a85.333333 85.333333 0 0 1-62.08-62.08L704 640h-42.666667l-8.917333 35.669333a85.333333 85.333333 0 0 1-62.08 62.08L554.666667 746.666667v42.666666l35.669333 8.917334A85.333333 85.333333 0 0 1 652.373333 860.330667L661.333333 896h42.666667l8.917333-35.669333a85.333333 85.333333 0 0 1 62.08-62.08z m213.333334-213.333334L1024 576v-42.666667l-35.669333-8.917333a85.333333 85.333333 0 0 1-62.08-62.08L917.333333 426.666667h-42.666666l-8.917334 35.669333a85.333333 85.333333 0 0 1-62.08 62.08L768 533.333333v42.666667l35.669333 8.917333a85.333333 85.333333 0 0 1 62.08 62.08L874.666667 682.666667h42.666666l8.917334-35.669334a85.333333 85.333333 0 0 1 62.08-62.08z"  horiz-adv-x="1024" />

    
    <glyph glyph-name="moon-clear-fill" unicode="&#58931;" d="M419.072 800.512a384 384 0 0 1 509.44-509.44C886.101333 100.096 715.733333-42.666667 512-42.666667 276.352-42.666667 85.333333 148.352 85.333333 384c0 203.733333 142.762667 374.101333 333.738667 416.512z m355.925333-2.261333L810.666667 789.333333v-42.666666l-35.669334-8.917334a85.333333 85.333333 0 0 1-62.08-62.08L704 640h-42.666667l-8.917333 35.669333a85.333333 85.333333 0 0 1-62.08 62.08L554.666667 746.666667v42.666666l35.669333 8.917334A85.333333 85.333333 0 0 1 652.373333 860.330667L661.333333 896h42.666667l8.917333-35.669333a85.333333 85.333333 0 0 1 62.08-62.08z m213.333334-213.333334L1024 576v-42.666667l-35.669333-8.917333a85.333333 85.333333 0 0 1-62.08-62.08L917.333333 426.666667h-42.666666l-8.917334 35.669333a85.333333 85.333333 0 0 1-62.08 62.08L768 533.333333v42.666667l35.669333 8.917333a85.333333 85.333333 0 0 1 62.08 62.08L874.666667 682.666667h42.666666l8.917334-35.669334a85.333333 85.333333 0 0 1 62.08-62.08z"  horiz-adv-x="1024" />

    
    <glyph glyph-name="mist-fill" unicode="&#58933;" d="M170.666667 725.333333h170.666666v-85.333333H170.666667V725.333333z m512-640h170.666666v-85.333333h-170.666666v85.333333zM85.333333 512h426.666667v-85.333333H85.333333V512z m512 0h256v-85.333333h-256V512zM170.666667 298.666667h256v-85.333334H170.666667v85.333334z m341.333333 0h426.666667v-85.333334H512v85.333334zM426.666667 725.333333h512v-85.333333H426.666667V725.333333zM85.333333 85.333333h512v-85.333333H85.333333v85.333333z"  horiz-adv-x="1024" />

    
    <glyph glyph-name="moon-fill" unicode="&#58934;" d="M485.546667 809.856a320 320 0 1 1 452.266666-452.266667C924.245333 134.229333 738.816-42.666667 512.042667-42.666667 276.352-42.666667 85.333333 148.352 85.333333 384c0 226.773333 176.896 412.202667 400.213334 425.856z"  horiz-adv-x="1024" />

    
    <glyph glyph-name="moon-cloudy-fill" unicode="&#58935;" d="M369.92 682.368a298.666667 298.666667 0 0 0 322.133333 166.442667 192 192 0 0 1 242.090667-242.090667c2.986667-16.896 4.522667-34.304 4.522667-52.053333a297.344 297.344 0 0 0-36.906667-143.914667A234.666667 234.666667 0 0 0 746.666667 0H384a341.333333 341.333333 0 0 0-14.08 682.368z m92.885333-8.832a342.016 342.016 0 0 0 239.36-208.426667 235.904 235.904 0 0 0 126.293334-10.453333c9.642667 18.133333 16.768 37.76 20.821333 58.453333a277.418667 277.418667 0 0 0-250.794667 250.88 213.461333 213.461333 0 0 1-135.68-90.453333z"  horiz-adv-x="1024" />

    
    <glyph glyph-name="rainy-line" unicode="&#58936;" d="M682.666667 128v85.333333h42.666666a170.666667 170.666667 0 1 1-92.032 314.453334A256 256 0 1 1 341.333333 216.874667v-86.272A341.376 341.376 0 0 0 384 810.666667a341.248 341.248 0 0 0 297.813333-174.378667A256 256 0 1 0 725.333333 128h-42.666666z m-246.101334-31.232L512 172.202667l75.434667-75.434667a106.666667 106.666667 0 1 0-150.869334 0z"  horiz-adv-x="1024" />

    
    <glyph glyph-name="mist-line" unicode="&#58937;" d="M170.666667 725.333333h170.666666v-85.333333H170.666667V725.333333z m512-640h170.666666v-85.333333h-170.666666v85.333333zM85.333333 512h213.333334v-85.333333H85.333333V512z m298.666667 0h128v-85.333333H384V512z m213.333333 0h256v-85.333333h-256V512zM170.666667 298.666667h256v-85.333334H170.666667v85.333334z m341.333333 0h128v-85.333334h-128v85.333334z m213.333333 0h213.333334v-85.333334h-213.333334v85.333334zM426.666667 725.333333h512v-85.333333H426.666667V725.333333zM85.333333 85.333333h512v-85.333333H85.333333v85.333333z"  horiz-adv-x="1024" />

    
    <glyph glyph-name="moon-foggy-fill" unicode="&#58938;" d="M682.666667 28.416V128h-85.333334v170.666667H142.165333A405.802667 405.802667 0 0 0 128 405.333333c0 194.56 137.088 357.12 320 396.330667a341.333333 341.333333 0 0 1 490.24-414.890667 405.546667 405.546667 0 0 0-255.573333-358.4zM298.666667 42.666667h298.666666v-85.333334H298.666667v85.333334z m-213.333334 170.666666h426.666667v-85.333333H85.333333v85.333333z"  horiz-adv-x="1024" />

    
    <glyph glyph-name="moon-foggy-line" unicode="&#58939;" d="M682.666667 28.416v93.824a320.938667 320.938667 0 0 1 154.581333 182.656 384 384 0 0 0-453.205333 383.573333A320.768 320.768 0 0 1 219.776 469.333333H132.992a405.546667 405.546667 0 0 0 364.288 339.754667 298.666667 298.666667 0 0 1 440.149333-372.394667A405.461333 405.461333 0 0 0 682.666667 28.373333zM298.666667 42.666667h298.666666v-85.333334H298.666667v85.333334z m-128 341.333333h256v-85.333333H170.666667v85.333333z m-85.333334-170.666667h426.666667v-85.333333H85.333333v85.333333z"  horiz-adv-x="1024" />

    
    <glyph glyph-name="rainbow-line" unicode="&#58940;" d="M512 725.333333c259.2 0 469.333333-210.133333 469.333333-469.333333v-213.333333h-85.333333v213.333333a384 384 0 0 1-372.693333 383.829333L512 640a384 384 0 0 1-383.829333-372.693333L128 256v-213.333333H42.666667v213.333333C42.666667 515.2 252.8 725.333333 512 725.333333z m0-170.666666a298.666667 298.666667 0 0 0 298.666667-298.666667v-213.333333h-85.333334v213.333333a213.333333 213.333333 0 0 1-204.074666 213.12L512 469.333333a213.333333 213.333333 0 0 1-213.12-204.074666L298.666667 256v-213.333333H213.333333v213.333333a298.666667 298.666667 0 0 0 298.666667 298.666667z m0-170.666667a128 128 0 0 0 128-128v-213.333333h-85.333333v213.333333a42.666667 42.666667 0 0 1-37.674667 42.368L512 298.666667a42.666667 42.666667 0 0 1-42.368-37.674667L469.333333 256v-213.333333H384v213.333333a128 128 0 0 0 128 128z"  horiz-adv-x="1024" />

    
    <glyph glyph-name="moon-line" unicode="&#58941;" d="M426.666667 597.333333a298.666667 298.666667 0 0 1 512-209.066666v-4.266667c0-235.648-191.018667-426.666667-426.666667-426.666667S85.333333 148.352 85.333333 384 276.352 810.666667 512 810.666667h4.266667A297.770667 297.770667 0 0 1 426.666667 597.333333z m-256-213.333333a341.333333 341.333333 0 0 1 642.645333-160.512A384 384 0 0 0 351.488 685.312 341.290667 341.290667 0 0 1 170.666667 384z"  horiz-adv-x="1024" />

    
    <glyph glyph-name="showers-fill" unicode="&#58942;" d="M640 128H384v-128H298.666667v138.752a341.333333 341.333333 0 1 0 403.541333 454.4A234.666667 234.666667 0 1 0 746.666667 128l-21.333334-0.042667v-128h-85.333333v128z m-170.666667-85.333333h85.333334v-128h-85.333334v128z"  horiz-adv-x="1024" />

    
    <glyph glyph-name="moon-cloudy-line" unicode="&#58944;" d="M369.92 682.368a298.666667 298.666667 0 0 0 322.133333 166.442667 192 192 0 0 1 242.090667-242.090667c2.986667-16.896 4.522667-34.304 4.522667-52.053333a297.344 297.344 0 0 0-36.906667-143.914667A234.666667 234.666667 0 0 0 746.666667 0H384a341.333333 341.333333 0 0 0-14.08 682.368z m92.885333-8.832a342.016 342.016 0 0 0 239.36-208.426667 235.904 235.904 0 0 0 126.293334-10.453333c9.642667 18.133333 16.768 37.76 20.821333 58.453333a277.418667 277.418667 0 0 0-250.794667 250.88 213.461333 213.461333 0 0 1-135.68-90.453333zM746.666667 85.333333a149.333333 149.333333 0 1 1-106.666667 253.866667V341.333333a256 256 0 1 1-256-256h362.666667z"  horiz-adv-x="1024" />

    
    <glyph glyph-name="showers-line" unicode="&#58945;" d="M213.333333 173.653333a341.333333 341.333333 0 1 0 488.874667 419.456A234.666667 234.666667 0 0 0 810.666667 136.832v90.88a149.333333 149.333333 0 1 1-170.666667 239.445333V469.333333a256 256 0 1 1-426.666667-190.805333v-104.874667zM298.666667 213.333333h85.333333v-170.666666H298.666667v170.666666z m341.333333 0h85.333333v-170.666666h-85.333333v170.666666z m-170.666667-128h85.333334v-170.666666h-85.333334v170.666666z"  horiz-adv-x="1024" />

    
    <glyph glyph-name="sun-cloudy-fill" unicode="&#58946;" d="M425.984 680.106667a277.333333 277.333333 0 1 0 481.536-274.602667A234.666667 234.666667 0 0 0 746.666667 0L384 0.042667a341.333333 341.333333 0 1 0 41.984 680.106666z m88.362667-23.210667a342.442667 342.442667 0 0 0 187.861333-191.786667 235.904 235.904 0 0 0 133.12-13.098666 192 192 0 0 1-320.938667 204.885333z"  horiz-adv-x="1024" />

    
    <glyph glyph-name="snowy-line" unicode="&#58961;" d="M554.666667 201.898667l83.797333 48.384 42.666667-73.898667L597.333333 128l83.797334-48.384-42.666667-73.898667L554.666667 54.101333V-42.666667h-85.333334v96.768l-83.797333-48.384-42.666667 73.898667L426.666667 128l-83.797334 48.384 42.666667 73.898667L469.333333 201.898667V298.666667h85.333334v-96.768zM725.333333 128v85.333333h21.333334a149.333333 149.333333 0 1 1-106.666667 253.866667V469.333333a256 256 0 1 1-341.333333-241.450666v-89.130667a341.333333 341.333333 0 1 0 403.541333 454.4A234.666667 234.666667 0 1 0 746.666667 128l-21.333334-0.042667z"  horiz-adv-x="1024" />

    
    <glyph glyph-name="snowy-fill" unicode="&#58963;" d="M257.152 152.32A341.461333 341.461333 0 0 0 384 810.666667a341.461333 341.461333 0 0 0 318.208-217.557334A234.666667 234.666667 0 0 0 768 128.938667a256 256 0 0 1-510.848 23.424zM554.666667 201.941333l83.797333 48.384 42.666667-73.898666L597.333333 128l83.797334-48.384-42.666667-73.898667L554.666667 54.101333V-42.666667h-85.333334v96.768l-83.797333-48.384-42.666667 73.898667L426.666667 128l-83.797334 48.384 42.666667 73.898667L469.333333 201.898667V298.666667h85.333334v-96.768z"  horiz-adv-x="1024" />

    
    <glyph glyph-name="temp-cold-line" unicode="&#58964;" d="M341.333333 682.666667a170.666667 170.666667 0 1 0 341.333334 0v-224.213334a298.666667 298.666667 0 1 0-341.333334 0V682.666667z m48.810667-294.186667a213.333333 213.333333 0 1 1 243.712 0L597.333333 413.952V682.666667a85.333333 85.333333 0 1 1-170.666666 0v-268.714667l-36.522667-25.472zM341.333333 213.333333h341.333334a170.666667 170.666667 0 1 0-341.333334 0z"  horiz-adv-x="1024" />

    
    <glyph glyph-name="sun-foggy-fill" unicode="&#58965;" d="M270.549333 298.666667A256 256 0 1 0 512 128v170.666667H270.549333zM256 42.666667h384v-85.333334H256v85.333334z m-213.333333 384h128v-85.333334H42.666667v85.333334z m42.666666-213.333334h341.333334v-85.333333H85.333333v85.333333z m384 640h85.333334v-128h-85.333334V853.333333zM149.973333 685.696l60.330667 60.330667L300.8 655.530667 240.469333 595.2 149.973333 685.653333zM723.2 112.469333l60.330667 60.330667 90.496-90.496-60.330667-60.330667-90.496 90.496z m90.496 633.6l60.330667-60.373333-90.496-90.496-60.330667 60.330667 90.496 90.496zM981.333333 426.666667v-85.333334h-128v85.333334h128z"  horiz-adv-x="1024" />

    
    <glyph glyph-name="sun-cloudy-line" unicode="&#58973;" d="M425.984 680.106667a277.333333 277.333333 0 1 0 481.536-274.602667A234.666667 234.666667 0 0 0 746.666667 0L384 0.042667a341.333333 341.333333 0 1 0 41.984 680.106666z m88.362667-23.210667a342.442667 342.442667 0 0 0 187.861333-191.786667 235.904 235.904 0 0 0 133.12-13.098666 192 192 0 0 1-320.938667 204.885333zM746.666667 85.333333a149.333333 149.333333 0 1 1-106.666667 253.866667V341.333333a256 256 0 1 1-256-256h362.666667z"  horiz-adv-x="1024" />

    
    <glyph glyph-name="sun-fill" unicode="&#58976;" d="M512 128a256 256 0 1 0 0 512 256 256 0 0 0 0-512zM469.333333 853.333333h85.333334v-128h-85.333334V853.333333z m0-810.666666h85.333334v-128h-85.333334v128zM149.973333 685.696l60.330667 60.330667L300.8 655.530667 240.469333 595.2 149.973333 685.653333zM723.2 112.469333l60.330667 60.330667 90.496-90.496-60.330667-60.330667-90.496 90.496z m90.496 633.6l60.330667-60.373333-90.496-90.496-60.330667 60.330667 90.496 90.496zM240.469333 172.8l60.330667-60.330667-90.496-90.496-60.330667 60.330667 90.496 90.496zM981.333333 426.666667v-85.333334h-128v85.333334h128zM170.666667 426.666667v-85.333334H42.666667v85.333334h128z"  horiz-adv-x="1024" />

    
    <glyph glyph-name="sun-foggy-line" unicode="&#58990;" d="M341.333333 384h85.333334v-85.333333H170.666667v85.333333h85.333333a256 256 0 1 0 256-256v85.333333a170.666667 170.666667 0 1 1-170.666667 170.666667z m-85.333333-341.333333h384v-85.333334H256v85.333334z m-170.666667 170.666666h341.333334v-85.333333H85.333333v85.333333z m384 640h85.333334v-128h-85.333334V853.333333zM149.973333 685.696l60.330667 60.330667L300.8 655.530667 240.469333 595.2 149.973333 685.653333zM723.2 112.469333l60.330667 60.330667 90.496-90.496-60.330667-60.330667-90.496 90.496z m90.496 633.6l60.330667-60.373333-90.496-90.496-60.330667 60.330667 90.496 90.496zM981.333333 426.666667v-85.333334h-128v85.333334h128z"  horiz-adv-x="1024" />

    
    <glyph glyph-name="sun-line" unicode="&#58991;" d="M512 128a256 256 0 1 0 0 512 256 256 0 0 0 0-512z m0 85.333333a170.666667 170.666667 0 1 1 0 341.333334 170.666667 170.666667 0 0 1 0-341.333334zM469.333333 853.333333h85.333334v-128h-85.333334V853.333333z m0-810.666666h85.333334v-128h-85.333334v128zM149.973333 685.696l60.330667 60.330667L300.8 655.530667 240.469333 595.2 149.973333 685.653333zM723.2 112.469333l60.330667 60.330667 90.496-90.496-60.330667-60.330667-90.496 90.496z m90.496 633.6l60.330667-60.373333-90.496-90.496-60.330667 60.330667 90.496 90.496zM240.469333 172.8l60.330667-60.330667-90.496-90.496-60.330667 60.330667 90.496 90.496zM981.333333 426.666667v-85.333334h-128v85.333334h128zM170.666667 426.666667v-85.333334H42.666667v85.333334h128z"  horiz-adv-x="1024" />

    
    <glyph glyph-name="temp-cold-fill" unicode="&#58992;" d="M341.333333 458.453333V682.666667a170.666667 170.666667 0 1 0 341.333334 0v-224.213334a298.666667 298.666667 0 1 0-341.333334 0zM341.333333 213.333333a170.666667 170.666667 0 1 1 341.333334 0H341.333333z"  horiz-adv-x="1024" />

    
    <glyph glyph-name="temp-hot-fill" unicode="&#58993;" d="M341.333333 458.453333V682.666667a170.666667 170.666667 0 1 0 341.333334 0v-224.213334a298.666667 298.666667 0 1 0-341.333334 0z m128-79.829333A170.752 170.752 0 0 1 512 42.666667a170.666667 170.666667 0 0 1 42.666667 335.957333V682.666667h-85.333334v-304.042667z"  horiz-adv-x="1024" />

    
    <glyph glyph-name="temp-hot-line" unicode="&#58995;" d="M341.333333 682.666667a170.666667 170.666667 0 1 0 341.333334 0v-224.213334a298.666667 298.666667 0 1 0-341.333334 0V682.666667z m48.810667-294.186667a213.333333 213.333333 0 1 1 243.712 0L597.333333 413.952V682.666667a85.333333 85.333333 0 1 1-170.666666 0v-268.714667l-36.522667-25.472z m79.189333-9.856V682.666667h85.333334v-304.042667A170.752 170.752 0 0 0 512 42.666667a170.666667 170.666667 0 0 0-42.666667 335.957333zM512 128a85.333333 85.333333 0 1 1 0 170.666667 85.333333 85.333333 0 0 1 0-170.666667z"  horiz-adv-x="1024" />

    
    <glyph glyph-name="thunderstorms-fill" unicode="&#58996;" d="M724.821333 128l51.882667 67.413333a64 64 0 0 1-50.730667 103.04H640v169.642667a64 64 0 0 1-114.773333 38.997333l-271.573334-353.322666A341.418667 341.418667 0 0 0 384 810.666667a341.461333 341.461333 0 0 0 318.208-217.557334A234.666667 234.666667 0 1 0 746.666667 128h-21.845334zM554.666667 213.12h128l-213.333334-277.333333v192H341.333333l213.333334 277.546666v-192.213333z"  horiz-adv-x="1024" />

    
    <glyph glyph-name="tornado-fill" unicode="&#58997;" d="M85.333333 768h853.333334v-85.333333H85.333333V768z m85.333334-170.666667h682.666666v-85.333333H170.666667V597.333333z m170.666666-170.666666h597.333334v-85.333334H341.333333v85.333334z m85.333334-170.666667h341.333333v-85.333333h-341.333333v85.333333z m-85.333334-170.666667h256v-85.333333H341.333333v85.333333z"  horiz-adv-x="1024" />

    
    <glyph glyph-name="blaze-fill" unicode="&#58999;" d="M789.333333 512c42.666667-45.226667 64-102.144 64-170.666667 0-147.882667-157.866667-182.442667-234.666666-384-28.458667 24.533333-42.666667 60.074667-42.666667 106.666667 0 148.565333 213.333333 225.706667 213.333333 448z m-170.666666 170.666667c51.2-52.821333 76.8-109.738667 76.8-170.666667 0-211.242667-257.92-242.858667-204.8-554.666667C419.541333 6.826667 384 77.952 384 170.666667c0 141.866667 234.666667 256 234.666667 512zM426.666667 853.333333c56.874667-71.125333 85.333333-135.125333 85.333333-192 0-266.666667-362.666667-350.805333-170.666667-704-111.616 24.746667-192 128-192 256C149.333333 490.666667 426.666667 533.333333 426.666667 853.333333z"  horiz-adv-x="1024" />

    
    <glyph glyph-name="blaze-line" unicode="&#59000;" d="M810.666667 512c28.458667-45.226667 42.666667-102.144 42.666666-170.666667 0-128-149.333333-170.666667-213.333333-384-28.458667 24.533333-42.666667 60.074667-42.666667 106.666667 0 148.565333 213.333333 225.706667 213.333334 448z m-192 170.666667a354.56 354.56 0 0 0 42.666666-170.666667c0-213.333333-256-256-170.666666-554.666667C419.541333 6.826667 384 77.952 384 170.666667c0 141.866667 234.666667 256 234.666667 512zM426.666667 853.333333c28.458667-56.874667 42.666667-120.874667 42.666666-192 0-256-384-320-128-704-106.666667 21.333333-192 128-192 256C149.333333 490.666667 426.666667 533.333333 426.666667 853.333333z"  horiz-adv-x="1024" />

    
    <glyph glyph-name="thunderstorms-line" unicode="&#59001;" d="M725.333333 128v85.333333h21.333334a149.333333 149.333333 0 1 1-106.666667 253.866667V469.333333a256 256 0 1 1-341.333333-241.450666v-89.130667a341.333333 341.333333 0 1 0 403.541333 454.4A234.666667 234.666667 0 1 0 746.666667 128l-21.333334-0.042667z m-170.666666 85.12h128l-213.333334-277.333333v192H341.333333l213.333334 277.546666v-192.213333z"  horiz-adv-x="1024" />

    
    <glyph glyph-name="tornado-line" unicode="&#59002;" d="M85.333333 768h853.333334v-85.333333H85.333333V768z m85.333334-170.666667h682.666666v-85.333333H170.666667V597.333333z m170.666666-170.666666h597.333334v-85.333334H341.333333v85.333334z m85.333334-170.666667h341.333333v-85.333333h-341.333333v85.333333z m-85.333334-170.666667h256v-85.333333H341.333333v85.333333z"  horiz-adv-x="1024" />

    
    <glyph glyph-name="windy-line" unicode="&#59003;" d="M448 170.666667H170.666667v85.333333h277.333333a149.333333 149.333333 0 1 0-139.861333-201.813333l79.914666 29.994666A64 64 0 1 1 448 170.666667zM213.333333 426.666667h576a149.333333 149.333333 0 1 0-139.861333-201.813334l79.914667 29.994667A64 64 0 1 1 789.333333 341.333333H213.333333a128 128 0 0 0 0 256h362.666667a64 64 0 1 1-59.946667 86.485334l-79.914666 29.952A149.376 149.376 0 0 0 725.333333 661.333333 149.333333 149.333333 0 0 0 576 512H213.333333a42.666667 42.666667 0 1 1 0-85.333333z"  horiz-adv-x="1024" />

    
    <glyph glyph-name="typhoon-line" unicode="&#59004;" d="M753.237333 823.466667l-118.698666-108.074667a389.845333 389.845333 0 0 0 148.906666-84.181333c149.845333-136.533333 149.845333-357.888 0-494.421334-110.592-100.693333-281.514667-164.778667-512.682666-192.256l118.698666 108.074667a389.845333 389.845333 0 0 0-148.906666 84.181333c-149.845333 136.533333-150.741333 357.077333 0 494.421334C351.146667 731.904 522.112 795.989333 753.28 823.466667zM512 640c-164.949333 0-298.666667-114.602667-298.666667-256s133.717333-256 298.666667-256 298.666667 114.602667 298.666667 256-133.717333 256-298.666667 256z m0-98.133333c94.293333 0 170.666667-70.698667 170.666667-157.866667s-76.373333-157.866667-170.666667-157.866667-170.666667 70.698667-170.666667 157.866667 76.373333 157.866667 170.666667 157.866667z m0-85.333334c-48.554667 0-85.333333-34.005333-85.333333-72.533333 0-38.528 36.778667-72.533333 85.333333-72.533333s85.333333 34.005333 85.333333 72.533333c0 38.528-36.778667 72.533333-85.333333 72.533333z"  horiz-adv-x="1024" />

    
    <glyph glyph-name="celsius-fill" unicode="&#59005;" d="M192 469.333333a149.333333 149.333333 0 1 0 0 298.666667 149.333333 149.333333 0 0 0 0-298.666667z m0 85.333334a64 64 0 1 1 0 128 64 64 0 0 1 0-128zM938.666667 469.333333h-85.333334a170.666667 170.666667 0 1 1-341.333333 0v-213.333333a170.666667 170.666667 0 1 1 341.333333 0h85.333334a256 256 0 1 0-512 0v213.333333a256 256 0 1 0 512 0z"  horiz-adv-x="1024" />

    
    <glyph glyph-name="celsius-line" unicode="&#59006;" d="M192 469.333333a149.333333 149.333333 0 1 0 0 298.666667 149.333333 149.333333 0 0 0 0-298.666667z m0 85.333334a64 64 0 1 1 0 128 64 64 0 0 1 0-128zM938.666667 469.333333h-85.333334a170.666667 170.666667 0 1 1-341.333333 0v-213.333333a170.666667 170.666667 0 1 1 341.333333 0h85.333334a256 256 0 1 0-512 0v213.333333a256 256 0 1 0 512 0z"  horiz-adv-x="1024" />

    
    <glyph glyph-name="windy-fill" unicode="&#59007;" d="M448 170.666667H170.666667v85.333333h277.333333a149.333333 149.333333 0 1 0-139.861333-201.813333l79.914666 29.994666A64 64 0 1 1 448 170.666667zM213.333333 426.666667h576a149.333333 149.333333 0 1 0-139.861333-201.813334l79.914667 29.994667A64 64 0 1 1 789.333333 341.333333H213.333333a128 128 0 0 0 0 256h362.666667a64 64 0 1 1-59.946667 86.485334l-79.914666 29.952A149.376 149.376 0 0 0 725.333333 661.333333 149.333333 149.333333 0 0 0 576 512H213.333333a42.666667 42.666667 0 1 1 0-85.333333z"  horiz-adv-x="1024" />

    
    <glyph glyph-name="cloud-windy-line" unicode="&#59008;" d="M597.333333 128v85.333333h149.333334a149.333333 149.333333 0 1 1-106.666667 253.866667V469.333333a256 256 0 1 1-512 0v-0.298666H42.666667V469.333333a341.333333 341.333333 0 0 0 659.541333 123.776A234.666667 234.666667 0 1 0 746.666667 128H597.333333z m-341.333333-85.333333h426.666667v-85.333334H256v85.333334z m0 341.333333h341.333333v-85.333333H256v85.333333z m-170.666667-170.666667h426.666667v-85.333333H85.333333v85.333333z"  horiz-adv-x="1024" />

    
    <glyph glyph-name="cloudy-2-fill" unicode="&#59009;" d="M725.333333 0H298.666667A256 256 0 0 0 213.674667 497.536a298.666667 298.666667 0 1 0 596.650666 0A256 256 0 0 0 725.333333 0z"  horiz-adv-x="1024" />

    
    <glyph glyph-name="cloud-windy-fill" unicode="&#59010;" d="M597.333333 128v170.368H88.490667a341.333333 341.333333 0 0 0 613.674666 294.741333A234.666667 234.666667 0 1 0 746.666667 128h-149.290667z m-341.333333-85.333333h426.666667v-85.333334H256v85.333334z m-170.666667 170.666666h426.666667v-85.333333H85.333333v85.333333z"  horiz-adv-x="1024" />

    
    <glyph glyph-name="typhoon-fill" unicode="&#59011;" d="M753.237333 823.466667l-118.698666-108.074667a389.845333 389.845333 0 0 0 148.906666-84.181333c149.845333-136.533333 149.845333-357.888 0-494.421334-110.592-100.693333-281.514667-164.778667-512.682666-192.256l118.698666 108.074667a389.845333 389.845333 0 0 0-148.906666 84.181333c-149.845333 136.533333-150.741333 357.077333 0 494.421334C351.146667 731.904 522.112 795.989333 753.28 823.466667zM512 554.666667c-106.026667 0-192-76.373333-192-170.666667s85.973333-170.666667 192-170.666667 192 76.373333 192 170.666667-85.973333 170.666667-192 170.666667z"  horiz-adv-x="1024" />

    
    <glyph glyph-name="google1" unicode="&#58917;" d="M1000 372.4C1000 89.4 806.2-112 520-112 245.6-112 24 109.6 24 384S245.6 880 520 880c133.6 0 246-49 332.6-129.8l-135-129.8C541 790.8 212.6 662.8 212.6 384c0-173 138.2-313.2 307.4-313.2 196.4 0 270 140.8 281.6 213.8H520v170.6h472.2c4.6-25.4 7.8-49.8 7.8-82.8z"  horiz-adv-x="1024" />

    
    <glyph glyph-name="check_box" unicode="&#60967;" d="M810.666667 768H213.333333c-46.933333 0-85.333333-38.4-85.333333-85.333333v-597.333334c0-46.933333 38.4-85.333333 85.333333-85.333333h597.333334c46.933333 0 85.333333 38.4 85.333333 85.333333V682.666667c0 46.933333-38.4 85.333333-85.333333 85.333333z m0-682.666667H213.333333V682.666667h597.333334v-597.333334zM767.573333 512l-60.16 60.586667-281.173333-281.173334-110.08 109.653334-60.586667-60.16 170.666667-170.24z"  horiz-adv-x="1024" />

    
    <glyph glyph-name="check-box" unicode="&#58915;" d="M810.656 682.656v-597.344H213.312V682.656h597.344z m0 85.344H213.312a85.6 85.6 0 0 1-85.344-85.344v-597.344c0-46.944 38.4-85.344 85.344-85.344h597.344c46.944 0 85.344 38.4 85.344 85.344V682.656C896 729.6 857.6 768 810.656 768z"  horiz-adv-x="1024" />

    
    <glyph glyph-name="folder" unicode="&#59120;" d="M860.2 512 163.8 512c-35.4 0-37.2-18.4-35.2-41l26-366c1.8-22.4 7-41 42.2-41l632.4 0c36 0 40.2 18.4 42.2 41l24.2 370.6C897.4 498 895.6 512 860.2 512zM852.4 609.4c-1 24.8-9 30.6-30.2 30.6 0 0-242.8 0-286.4 0-43.6 0-48.8-0.6-81.8 34.8C426.6 704.4 437.4 704 380.8 704c-45.2 0-150.6 0-150.6 0-34.8 0-47.2 3-50.4-33.2-3-33.4-10-114.4-11-126.8l686.8 0L852.4 609.4z"  horiz-adv-x="1024" />

    
    <glyph glyph-name="folder1" unicode="&#58960;" d="M880.014222 597.617778H520.988444l-117.276444 112.184889a8.163556 8.163556 0 0 1-5.518222 2.190222H143.985778c-17.692444 0-32-14.279111-32-32v-591.985778c0-17.720889 14.307556-32 32.028444-32h736c17.692444 0 32 14.279111 32 32v477.582222c0 17.720889-14.307556 32-32.028444 32z"  horiz-adv-x="1024" />

    
    <glyph glyph-name="chrome3" unicode="&#59171;" d="M987.428571 383.657143v0.342857c0 262.628571-212.8 475.428571-475.428571 475.428571S36.571429 646.628571 36.571429 384v-0.457143c0-262.628571 212.8-475.428571 475.428571-475.428571s475.428571 212.8 475.428571 475.428571v0.342857-0.228571z m-7.657142 85.257143l0.685714-3.771429-0.685714 3.771429zM700.228571 239.771429c61.142857 93.942857 60 216.457143-12.685714 301.371428l185.6 9.6c23.428571-50.742857 36.571429-107.2 36.571429-166.742857 0-211.657143-165.257143-384.685714-373.828572-397.028571l164.342857 252.8zM512 223.657143c-88.571429 0-160.228571 71.657143-160.228571 160.228571 0 88.8 71.657143 160.228571 160.228571 160.228572S672.228571 472.571429 672.228571 384 600.571429 223.657143 512 223.657143z m421.942857 379.085714l-3.428571 6.514286 3.428571-6.514286zM512 781.714286c138.628571 0 260.8-70.971429 331.885714-178.514286l-301.257143 15.885714c-111.428571 6.514286-217.371429-56.228571-254.057142-161.257143L187.2 613.714286c72.114286 101.6 190.742857 168 324.8 168zM44 299.657143c29.714286-165.714286 145.257143-301.714286 298.971429-360.114286C189.257143-2.285714 73.714286 133.714286 44 299.657143zM114.285714 384c0 63.885714 15.085714 124.228571 41.828572 177.714286l136.8-269.028572c50.4-99.085714 157.028571-159.657143 267.428571-138.971428l-84.571428-165.828572C273.028571 6.285714 114.285714 176.571429 114.285714 384z m371.085715-474.742857c4.571429-0.228571 9.142857-0.457143 13.714285-0.571429-4.571429 0.228571-9.142857 0.342857-13.714285 0.571429z"  horiz-adv-x="1024" />

    
    <glyph glyph-name="chrome4" unicode="&#59092;" d="M734.4 843.2C611.2 902.4 473.6 910.4 344 865.6 216 822.4 112 729.6 52.8 606.4c-123.2-252.8-17.6-560 236.8-681.6 70.4-33.6 145.6-51.2 222.4-51.2 56 0 112 9.6 168 28.8 128 44.8 232 136 291.2 259.2 123.2 252.8 16 558.4-236.8 681.6z m-35.2-72c164.8-80 256-251.2 240-424L662.4 536c-14.4 14.4-32 27.2-51.2 36.8-46.4 22.4-97.6 25.6-147.2 8-9.6-3.2-17.6-8-27.2-11.2l24 241.6c83.2 9.6 164.8-3.2 238.4-40zM478.4 299.2c-27.2 12.8-46.4 35.2-57.6 64-9.6 28.8-8 59.2 4.8 84.8s35.2 46.4 64 57.6c12.8 4.8 24 6.4 36.8 6.4 16 0 33.6-3.2 48-11.2 27.2-12.8 46.4-35.2 57.6-64 9.6-28.8 8-59.2-4.8-84.8s-35.2-46.4-64-57.6c-27.2-9.6-57.6-8-84.8 4.8zM124.8 572.8C176 675.2 262.4 753.6 371.2 790.4c3.2 1.6 6.4 1.6 9.6 3.2L347.2 464c-14.4-41.6-14.4-84.8 0-126.4 12.8-36.8 35.2-67.2 65.6-91.2L150.4 152C72 273.6 57.6 432 124.8 572.8z m528-595.2c-108.8-38.4-225.6-30.4-328 19.2-46.4 22.4-88 52.8-121.6 89.6L544 208c16 1.6 32 4.8 46.4 9.6 48 16 88 51.2 110.4 97.6 12.8 27.2 19.2 56 19.2 84.8l204.8-139.2c-6.4-22.4-14.4-43.2-25.6-65.6-51.2-102.4-137.6-180.8-246.4-217.6z"  horiz-adv-x="1024" />

    
    <glyph glyph-name="edge-line" unicode="&#59731;" d="M341.632 298.624A194.517333 194.517333 0 0 1 341.333333 288C341.333333 186.368 416.128 85.333333 554.666667 85.333333c101.248 0 193.194667 27.946667 256 66.261334v-142.933334C734.336-24.064 644.821333-42.666667 554.666667-42.666667c-234.752 0-341.333333 148.053333-341.333334 330.666667 0 137.856 87.082667 256 210.901334 305.664C364.330667 526.378667 341.333333 454.784 341.333333 426.837333L768 426.666667c0 145.322667-108.714667 256-256 256-213.333333 0-341.376-170.154667-384-255.957334C140.373333 629.888 299.093333 810.666667 512 810.666667c221.866667 0 384-171.946667 384-384v-128H341.333333l0.298667-0.042667z"  horiz-adv-x="1024" />

    
    <glyph glyph-name="bx-extension" unicode="&#59751;" d="M810.666667 469.333333V597.333333c0 47.061333-38.272 85.333333-85.333334 85.333334h-128c0 70.570667-57.429333 128-128 128S341.333333 753.237333 341.333333 682.666667H213.333333c-47.061333 0-85.333333-38.272-85.333333-85.333334v-165.589333l28.117333-10.197333C190.336 409.173333 213.333333 376.917333 213.333333 341.333333s-22.997333-67.84-57.216-80.213333L128 250.922667V85.333333c0-47.061333 38.272-85.333333 85.333333-85.333333h165.589334l10.197333 28.117333C401.493333 62.336 433.749333 85.333333 469.333333 85.333333s67.84-22.997333 80.213334-57.216l10.197333-28.117333H725.333333c47.061333 0 85.333333 38.272 85.333334 85.333333v128c70.570667 0 128 57.429333 128 128s-57.429333 128-128 128z m0-170.666666h-85.333334l-0.128-213.333334h-108.586666c-30.336 52.053333-86.272 85.333333-147.285334 85.333334s-116.949333-33.28-147.285333-85.333334H213.333333v108.714667C265.386667 224.384 298.666667 280.32 298.666667 341.333333s-33.28 116.949333-85.333334 147.285334V597.333333h213.333334V682.666667a42.666667 42.666667 0 0 0 85.333333 0v-85.333334h213.333333v-213.333333h85.333334a42.666667 42.666667 0 0 0 0-85.333333z"  horiz-adv-x="1024" />

    
    <glyph glyph-name="edge-line1" unicode="&#59342;" d="M341.632 298.624A194.517333 194.517333 0 0 1 341.333333 288C341.333333 186.368 416.128 85.333333 554.666667 85.333333c101.248 0 193.194667 27.946667 256 66.261334v-142.933334C734.336-24.064 644.821333-42.666667 554.666667-42.666667c-234.752 0-341.333333 148.053333-341.333334 330.666667 0 137.856 87.082667 256 210.901334 305.664C364.330667 526.378667 341.333333 454.784 341.333333 426.837333L768 426.666667c0 145.322667-108.714667 256-256 256-213.333333 0-341.376-170.154667-384-255.957334C140.373333 629.888 299.093333 810.666667 512 810.666667c221.866667 0 384-171.946667 384-384v-128H341.333333l0.298667-0.042667z"  horiz-adv-x="1024" />

    
    <glyph glyph-name="chrome" unicode="&#59013;" d="M515.436 583.685H914.285C840.842 730.955 688.748 832.132 513 832.132c-141.284 0-267.274-65.395-349.42-167.546l151.66-262.682c8.535 102.325 95.704 181.781 200.196 181.781zM514.218 550.803c-91.476 0-165.631-74.155-165.631-165.631s74.155-165.631 165.631-165.631c52.7 0 99.615 24.642 129.95 62.999l1.428 2.474 0.355-0.205c21.252 27.852 33.898 62.624 33.898 100.363 0 84.774-63.702 154.626-145.841 164.413l-6.393 0.632c-4.424 0.354-8.882 0.586-13.397 0.586zM929.561 549.585H627.443c52.209-36.066 86.506-96.297 86.506-164.413 0-45.547-18.268-81.598-41.12-121.192L483.898-63.257c9.624-0.617 19.322-0.966 29.102-0.966 247.521 0 448.177 200.656 448.177 448.177 0 58.508-11.225 114.391-31.616 165.631zM514.218 185.441c-83.583 0-144.927 54.804-185.034 124.651l-0.235-0.136-187.482 324.727C93.081 563.124 64.823 476.84 64.823 383.954c0-225.02 165.839-411.288 381.958-443.298l152.278 263.752c-25.769-12.143-54.518-18.967-84.841-18.967z"  horiz-adv-x="1024" />

    
    <glyph glyph-name="chrome1" unicode="&#59119;" d="M351.771429 384c0-88.571429 71.657143-160.228571 160.228571-160.228571S672.228571 295.428571 672.228571 384 600.571429 544.228571 512 544.228571 351.771429 472.685714 351.771429 384zM955.428571 554.971429l-267.771428-13.828572c72.685714-84.914286 73.828571-207.428571 12.685714-301.371428l-214.857143-330.514286c89.142857-4.8 181.028571 14.742857 264.228572 63.085714 205.714286 118.857143 289.142857 368.114286 205.714285 582.628572zM292.914286 292.685714L114.057143 644.457143A474.685714 474.685714 0 0 1 36.571429 384c0-237.714286 174.057143-434.628571 401.6-469.485714l122.171428 239.314285c-110.4-20.8-217.028571 39.771429-267.428571 138.857143z m249.714285 326.285715l393.6-20.685715C896 678.057143 832.685714 747.428571 749.485714 795.771429 674.171429 839.314286 591.428571 860 510.285714 859.428571c-140-0.571429-276.8-63.085714-368.114285-176.571428l146.514285-225.028572c36.571429 105.028571 142.628571 167.657143 253.942857 161.142858z"  horiz-adv-x="1024" />

    
    <glyph glyph-name="chrome2" unicode="&#58914;" d="M257.706667 449.408L111.445333 703.146667A509.610667 509.610667 0 0 0 510.976 896c187.093333 0 350.805333-100.693333 439.850667-251.050667H533.76a242.602667 242.602667 0 0 1-22.613333 0.981334c-121.728 0.128-224.341333-83.626667-253.44-196.522667z m436.352 121.6h292.992A512.426667 512.426667 0 0 0 1022.208 384c0-280.832-225.706667-508.8-505.344-512l209.066667 362.794667a260.693333 260.693333 0 0 1 46.592 149.333333 261.077333 261.077333 0 0 1-78.464 186.88zM325.418667 384a186.026667 186.026667 0 0 0 185.685333 186.026667 186.026667 186.026667 0 1 0 0-372.053334A186.026667 186.026667 0 0 0 325.418667 384z m255.658666-252.586667L434.773333-122.453333C188.586667-85.589333 0 127.061333 0 384c0 91.221333 23.893333 176.938667 65.578667 251.050667l208.768-362.154667a261.802667 261.802667 0 0 1 236.842666-151.04c24.192 0 47.530667 3.413333 69.888 9.6z"  horiz-adv-x="1024" />

    
    <glyph glyph-name="chajian" unicode="&#59036;" d="M627.2-64H166.4c-25.6 0-51.2 12.8-70.4 25.6-19.2 19.2-32 44.8-32 70.4v115.2c6.4 19.2 12.8 38.4 32 51.2 12.8 6.4 19.2 12.8 32 12.8s25.6-6.4 44.8-12.8H192c12.8-6.4 19.2-6.4 32-6.4s25.6 0 32 6.4c12.8 6.4 19.2 12.8 25.6 19.2 6.4 6.4 12.8 19.2 19.2 25.6 6.4 12.8 6.4 19.2 6.4 32s0 25.6-6.4 32c-6.4 12.8-12.8 19.2-19.2 25.6s-19.2 12.8-25.6 19.2c-12.8 6.4-19.2 6.4-32 6.4s-19.2 0-32-6.4h-6.4c-6.4-6.4-19.2-6.4-25.6-12.8-12.8-6.4-25.6-6.4-38.4-6.4-19.2 0-32 12.8-38.4 25.6-6.4 12.8-12.8 25.6-12.8 44.8V499.2c0 25.6 12.8 51.2 32 70.4 19.2 19.2 44.8 32 70.4 32H256c-6.4 19.2-6.4 32-6.4 51.2 0 25.6 6.4 51.2 12.8 70.4l38.4 57.6c19.2 19.2 38.4 32 57.6 38.4C384 832 403.2 832 428.8 832s51.2-6.4 70.4-12.8l57.6-38.4c19.2-19.2 32-38.4 38.4-57.6 12.8-25.6 12.8-44.8 12.8-70.4 0-19.2 0-38.4-6.4-51.2h25.6c25.6 0 51.2-12.8 70.4-32 19.2-19.2 25.6-44.8 25.6-70.4v-64c19.2 6.4 38.4 6.4 57.6 6.4 25.6 0 44.8-6.4 70.4-12.8 19.2-6.4 38.4-25.6 57.6-38.4 19.2-19.2 32-38.4 38.4-57.6 6.4-19.2 12.8-44.8 12.8-70.4 0-25.6-6.4-51.2-12.8-70.4-6.4-19.2-19.2-38.4-38.4-57.6-19.2-19.2-38.4-32-57.6-38.4-19.2-6.4-44.8-12.8-70.4-12.8-19.2 0-38.4 0-57.6 6.4v-51.2c0-25.6-12.8-51.2-25.6-70.4-19.2-19.2-44.8-32-70.4-32z m-486.4 192v-96c0-6.4 0-12.8 6.4-19.2 6.4-6.4 12.8-6.4 19.2-6.4h460.8c6.4 0 12.8 0 19.2 6.4 6.4 6.4 6.4 12.8 6.4 19.2v198.4l64-51.2c6.4-6.4 19.2-12.8 32-19.2 12.8-6.4 25.6-6.4 38.4-6.4 12.8 0 25.6 0 38.4 6.4 12.8 6.4 25.6 12.8 32 25.6 12.8 12.8 19.2 19.2 25.6 32 6.4 12.8 6.4 25.6 6.4 38.4 0 12.8 0 25.6-6.4 38.4-6.4 12.8-12.8 25.6-25.6 32-12.8 12.8-19.2 19.2-32 25.6-12.8 6.4-25.6 6.4-38.4 6.4-12.8 0-25.6 0-38.4-6.4-12.8-6.4-25.6-12.8-32-19.2l-64-51.2V486.4c0 6.4 0 12.8-6.4 19.2C640 512 640 512 627.2 512H454.4l51.2 64c19.2 19.2 25.6 38.4 25.6 64 0 12.8 0 32-6.4 44.8-6.4 12.8-12.8 25.6-25.6 32-12.8 12.8-19.2 19.2-32 25.6-12.8 6.4-25.6 6.4-44.8 6.4-12.8 0-25.6 0-44.8-6.4-12.8-6.4-25.6-12.8-32-25.6-12.8-12.8-19.2-19.2-25.6-32-6.4-12.8-6.4-25.6-6.4-44.8 0-12.8 0-25.6 6.4-38.4 6.4-12.8 12.8-25.6 19.2-32l51.2-64H166.4c-6.4 0-12.8 0-19.2-6.4-6.4-6.4-6.4-12.8-6.4-19.2v-89.6s6.4 0 6.4 6.4c6.4 0 6.4 6.4 12.8 6.4 19.2 6.4 38.4 12.8 64 12.8 19.2 0 44.8-6.4 64-12.8 19.2-6.4 38.4-19.2 51.2-32 12.8-12.8 25.6-32 32-51.2 6.4-19.2 12.8-38.4 12.8-64 0-19.2-6.4-44.8-12.8-64-6.4-19.2-19.2-38.4-32-51.2-12.8-12.8-32-25.6-51.2-32-19.2-6.4-38.4-12.8-64-12.8-19.2 0-44.8 6.4-64 12.8-6.4 12.8-12.8 19.2-19.2 19.2z"  horiz-adv-x="1024" />

    
    <glyph glyph-name="Extension" unicode="&#58998;" d="M554.666667 810.496a127.914667 127.914667 0 0 0 127.744-120.32l0.213333-7.466667 96-0.042666c37.034667 0 67.754667-26.88 73.685333-62.250667l0.768-6.314667 0.256-6.101333-0.042666-160.042667h-85.248a64 64 0 0 1-63.146667-52.906666l-0.64-5.632-0.213333-5.461334a64 64 0 0 1 52.906666-63.146666l5.632-0.64 5.461334-0.213334H853.333333v-160.085333a74.666667 74.666667 0 0 0-68.522666-74.410667l-6.101334-0.256-96.042666 0.042667-0.170667-7.381333a128 128 0 0 0-112.554667-119.552l-7.68-0.682667-7.552-0.213333a128 128 0 0 0-127.786666 120.32L426.666667 85.248H330.666667a74.666667 74.666667 0 0 0-73.642667 62.208l-0.768 6.314667L256 159.872 255.957333 256l-6.954666 0.213333a128 128 0 0 0-119.594667 112.554667l-0.682667 7.68L128.512 384a128 128 0 0 0 120.490667 127.786667l6.954666 0.213333V608c0 36.992 26.965333 67.712 62.293334 73.642667l6.272 0.768L330.666667 682.666667l95.957333 0.042666 0.256 7.296a128 128 0 0 0 112.554667 119.594667l7.68 0.682667 7.552 0.213333z m0-64a64 64 0 0 1-63.701334-57.856l-0.298666-6.186667-0.085334-63.744L330.666667 618.666667a10.666667 10.666667 0 0 1-10.368-8.234667L320 608l-0.042667-160.042667H256.512a64 64 0 0 1-6.144-127.701333l6.144-0.298667H320v-160.085333a10.666667 10.666667 0 0 1 8.277333-10.368l2.432-0.298667h159.914667l0.085333-63.786666a64 64 0 0 1 127.701334-6.186667L618.666667 85.333333l-0.085334 63.872h160.085334a10.666667 10.666667 0 0 1 10.368 8.192l0.298666 2.432L789.290667 256h-22.314667l-7.68 0.256a128.128 128.128 0 0 0-119.04 121.173333l-0.170667 7.594667 0.256 7.68a128 128 0 0 0 120.277334 119.04L768 511.957333h21.248V608a10.666667 10.666667 0 0 1-5.546667 9.386667l-2.645333 0.981333-2.432 0.298667-160.085333 0.042666 0.085333 63.786667a64 64 0 0 1-64 64z"  horiz-adv-x="1024" />

    
    <glyph glyph-name="edge" unicode="&#58952;" d="M501.547101 896h14.795857c10.553898-1.367987 21.087795-3.734964 31.664692-3.939962C607.079077 890.923049 663.158533 876.605188 716.069019 851.400433c114.39489-54.489471 196.465093-139.360647 238.643684-260.332473 30.9517-88.774138 27.165736-181.007243 26.953738-272.915351-0.038-17.907826-10.085902-18.832817-24.034767-18.812817-193.141125 0.336997-386.28125 0.298997-579.417375 0.351996-12.843875 0.005-25.686751 0-37.667635 0-7.012932-33.479675 12.298881-84.305182 27.162737-107.935952 44.483568-70.727313 114.37289-96.87106 192.539131-105.839972 106.663965-12.243881 209.035971 2.417977 304.977039 53.344482 8.554917 4.541956 19.006816 5.504947 30.585703 8.683915 0-63.560383-0.620994-122.523811 0.379997-181.465238 0.293997-17.392831-5.913943-26.283745-21.346793-33.773672-66.074359-32.078689-136.145678-51.706498-208.554976-57.264444-101.558014-7.798924-201.96504-5.827943-296.777119 44.201571-96.747061 51.046504-164.378404 127.225765-194.292114 229.293774-50.976505 173.937312-3.527966 350.2536 169.934351 462.039515 14.234862 9.175911 29.930709 16.082844 44.946563 24.044766-27.259735-48.746527-51.053504-95.997068-53.51048-152.373521h362.225484c8.891914 82.4602-28.86572 176.942282-123.136805 205.546005-47.611538 14.44786-96.091067 13.339871-145.706586 6.509937-110.656926-15.229852-206.427996-60.426413-287.924205-135.558684-34.228668-31.558694-64.988369-66.881351-99.966029-103.233998 1.439986 12.850875 0.729993 23.64477 4.01996 33.036679 17.801827 50.817507 32.256687 103.421996 55.879458 151.46753C165.382365 769.364229 270.817341 847.886467 409.947991 881.071145 439.959699 888.229075 470.988398 891.135047 501.547101 896z"  horiz-adv-x="1024" />

    
    <glyph glyph-name="edge1" unicode="&#58880;" d="M51.428 439.674c0.222 0.324 0.46 0.646 0.684 0.97-0.042-0.324-0.09-0.646-0.13-0.97h-0.554z m921.144-31.016c0 88.064-15.508 168.93-57.602 244.81C832.996 800.242 687.824 879.998 517.786 879.998 237.924 880.552 81.234 669.572 52.112 440.642c84.858 122.624 234.146 242.752 440.75 249.932 0 0 219.332 0 198.838-209.914H339.994c12.738 74.772 37.108 117.972 68.678 157.852-150.096-69.786-243.7-192.192-241.484-376.63 1.66-142.896 100.248-289.672 241.486-343.952 166.714-63.694 385.552-14.4 480.264 42.648V169.386c-161.728-112.988-541.742-121.85-544.51 135.144h628.146v104.128z"  horiz-adv-x="1024" />

    
    <glyph glyph-name="icon-test1" unicode="&#59256;" d="M929.072167 384.606819c0 21.740097-11.853955 41.544102-30.952904 51.655371l-92.13319 48.818771 92.13319 48.678579c19.098949 10.113315 30.952904 29.915274 30.952904 51.656393-0.055258 21.767726-11.909214 41.543079-30.952904 51.655371L552.172874 819.90301c-24.660607 13.060431-55.658536 13.060431-80.375424 0l-345.887037-182.831706c-19.103042-10.111268-30.98258-29.886621-30.98258-51.655371 0-21.74112 11.853955-41.544102 30.952904-51.656393l92.075884-48.678579-92.075884-48.818771c-19.098949-10.083639-30.952904-29.886621-30.952904-51.655371 0-21.796378 11.853955-41.628013 30.952904-51.711652l95.054723-50.362937-94.940113-49.860495c-19.186953-10.026334-31.066491-29.773034-31.066491-51.486525 0-21.711444 11.879538-41.459168 31.036815-51.485502l345.944342-181.539273c12.555942-6.600312 26.319383-9.859536 40.09715-9.859536a85.870568 85.870568 0 0 1 40.055195 9.888188l345.944341 181.510621c19.157277 10.027357 31.065467 29.775081 31.065468 51.485502 0 21.714514-11.909214 41.461214-31.065468 51.486525l-94.996394 49.860495 95.108958 50.362937c19.098949 10.113315 30.952904 29.916297 30.952904 51.711652zM498.677603 769.03456a28.437622 28.437622 0 0 0 13.328537 3.342112c4.550634 0 9.155502-1.151217 13.257928-3.342112L871.209434 584.629012 525.264068 401.743071c-8.201783-4.354159-18.425615-4.354159-26.556789 0.026606L152.790566 586.2018310000001l345.887037 182.832729z m372.586066-588.409097L525.322397-0.8851580000000467c-8.371651-4.410441-18.372403-4.410441-26.699029 0L152.706655 181.749051l129.827622 68.142847 189.23452-100.249015a85.863405 85.863405 0 0 1 40.237343-10.028381c13.819723 0 27.583163 3.343135 40.166734 10.028381l189.095352 100.165104 129.995443-69.182524z m-346.053836 19.831634c-8.314346-4.412488-18.147276-4.383835-26.501531 0L152.790566 385.422393l126.681985 67.132845 192.353551-101.68164c12.331838-6.517424 26.235472-9.972099 40.181061-9.972099 13.932286 0 27.809314 3.482304 40.166735 9.972099l192.128424 101.597729 126.908135-68.73227-346.000624-183.28196z"  horiz-adv-x="1024" />

    
    <glyph glyph-name="wang" unicode="&#59258;" d="M864.692009 45.920774c84.210769 87.835312 136.28774 206.79135 136.287741 338.079226 0 240.273862-173.420378 439.593045-401.785026 480.771827-0.280385 0.028653-0.505512 0.083911-0.786921 0.140193-28.087652 5.000887-56.852732 8.06159-86.402686 8.06159-270.074525 0-488.986913-218.898061-488.986913-488.97361 0-131.794412 52.38601-251.172051 137.157548-339.118903 0.322341-0.449231 0.377599-1.011025 0.729616-1.460255 0.800224-1.039677 1.968837-1.573842 2.866275-2.473326 88.689771-89.995507 211.876148-145.922149 348.233474-145.922149 135.727993 0 258.474349 55.391454 347.126258 144.71465 1.345645 1.207499 3.033074 1.938138 4.21192 3.453651 0.675381 0.845249 0.843203 1.827621 1.348714 2.727106z m-324.427325-91.908063V143.164344c46.008778-2.498909 90.896015-10.785626 133.759156-25.195795-25.054579-59.351641-58.088884-113.761746-98.704849-160.219754a403.093832 403.093832 0 0 0-35.054307-3.736084z m-82.667626 2.332111c-41.613687 47.329864-75.26402 102.947468-100.669593 163.731734 40.44712 12.920238 82.554039 20.615485 125.781477 23.031507v-189.094328c-8.42691 0.5884-16.795491 1.319039-25.111884 2.331087zM81.976896 355.235944h165.50205c2.878555-69.521238 15.111132-137.382676 35.839182-201.482448-33.131519-14.662925-64.772083-32.94937-94.966719-54.127674-60.924459 69.268481-99.871415 157.973602-106.374513 255.610122z m106.375536 313.13721c29.478323-20.674837 60.459879-38.369813 92.791174-52.862869-20.167278-64.156054-31.727545-132.300947-34.003373-202.748275H81.976896c6.503098 97.666195 45.450054 186.371316 106.375536 255.611144z m294.35651 145.585482v-189.096374c-43.985706 2.473326-86.892849 10.309789-128.027629 23.679258 24.395571 59.943111 56.810777 115.024503 96.821969 162.157892 10.295463 1.461278 20.673814 2.584866 31.20566 3.259224z m98.678243-4.636591c38.986865-46.205252 70.725667-99.939977 94.772291-158.393157-43.539545-14.858376-89.154351-23.567718-135.894792-26.122908v189.208938a423.073846 423.073846 0 0 0 41.122501-4.692873z m360.606243-396.560035H784.638926c-2.248199 71.65585-14.158436 140.923308-34.999049 206.005452 29.887644 13.90261 58.594396 30.420786 86.008714 49.576016 60.89683-69.237782 99.828437-157.943926 106.344837-255.581468z m-459.284486 0H304.695975c2.275828 62.470672 12.709438 123.67654 30.630563 181.511644 47.287908-15.506128 96.725778-24.382268 147.382404-26.938482v-154.573162z m0-57.526066v-154.600792c-50.069249-2.500955-98.914626-11.320814-145.627437-26.489251-18.385706 57.582348-29.283895 118.564112-32.105145 181.090043h177.732582z m57.555742 0H726.832474c-2.866275-63.284199-13.987544-124.995579-32.751873-183.225679-49.212743 16.71465-100.840484 26.096303-153.815917 28.681169V355.235944z m0 57.526066v154.518927c53.479922 2.611472 105.671503 12.471008 155.442971 29.548931 18.369333-58.593373 29.100724-120.670072 31.403158-184.067858H540.264684z m189.601887 260.245689c-16.292025 39.352185-35.89751 76.68232-58.875805 111.710021 45.390702-18.061318 86.85294-43.594804 123.144422-75.081872-20.674837-13.848375-42.135572-26.094256-64.268617-36.628149z m-429.174785-3.146661a502.386057 502.386057 0 0 0-70.894512 39.746157c39.001191 33.847831 84.125834 60.672727 133.465467 78.874238-24.621721-36.993468-45.505312-76.683343-62.570955-118.620395z m2.626821-570.319126c18.00606-43.425958 39.943654-84.379614 65.785154-122.15898-51.698349 18.22914-98.846065 45.868585-139.419051 81.12039 23.552368 15.786513 48.144414 29.494696 73.633897 41.03859z m423.849511-3.201919c23.146117-10.87056 45.617876-23.398873 67.076564-37.836671-37.808019-32.892065-81.399752-59.15619-129.040701-77.328025 24.100859 35.784946 44.775697 74.351233 61.964137 115.164696z m20.279841 54.127673c21.40343 65.024839 33.931742 134.07024 36.910581 204.768278h157.634888c-6.516401-97.636519-45.448007-186.342663-106.34586-255.609098-28.087652 19.690419-57.526066 36.740712-88.199609 50.84082z"  horiz-adv-x="1024" />

    
    <glyph glyph-name="360logo" unicode="&#58882;" d="M680.416757 436.92028 573.090357 436.92028 573.090357 544.246681c0 30.312376-24.800849 55.113225-55.113225 55.113225l0 0c-30.312376 0-55.113225-24.800849-55.113225-55.113225l0-107.326401L355.537506 436.92028c-30.312376 0-55.113225-24.800849-55.113225-55.113225l0 0c0-30.312376 24.800849-55.113225 55.113225-55.113225l107.326401 0 0-107.326401c0-30.312376 24.800849-55.113225 55.113225-55.113225l0 0c30.312376 0 55.113225 24.800849 55.113225 55.113225L573.090357 326.69383l107.326401 0c30.312376 0 55.113225 24.800849 55.113225 55.113225l0 0C735.529983 412.119431 710.729134 436.92028 680.416757 436.92028zM511.771803 819.106726c-239.630682 0-435.106726-195.47195-435.106726-435.103656 0-94.841042 30.642904-182.753277 82.499969-254.379595 13.024641-20.517289 32.243355-42.841737 59.010999-66.24168 77.483722-71.033823 180.62787-114.488521 293.595758-114.488521 103.163591 0 198.122313 36.252669 272.847202 96.638991 0.907673 0.728594 1.814322 1.456165 2.716878 2.192945 0.475837 0.38988 0.954745 0.775666 1.425466 1.165546 22.744004 18.662035 43.799552 39.940664 62.682621 63.755046 59.665915 74.495668 95.433536 168.876222 95.433536 271.356244C946.877505 623.629659 751.405555 819.106726 511.771803 819.106726zM829.009004 132.567527c-66.787102-37.028335-141.208069-57.060577-188.409091-66.422805-90.930989-18.152429-200.3654 12.568247-240.679571 31.591509-68.068282 32.116465-89.183182 64.577784-124.267235 97.739045l-20.070104 19.195178c-47.562249 44.911886-98.123808 39.531342-113.870444 4.776793-22.51069 50.329269-35.056424 106.024755-35.056424 164.555823 0.001023 92.624561 31.394011 178.147376 84.049255 246.521626 68.905346 40.120766 147.548474 61.442374 196.569958 71.193459 91.102904 18.147312 200.535269-12.568247 240.679571-31.592532 68.240197-32.115442 89.182158-64.576761 124.43915-97.91403l20.070104-19.023262c47.082318-44.544519 95.120404-38.818097 109.209284-4.267187 22.610974-50.424436 35.21299-106.243743 35.21299-164.91705C916.885424 289.145655 883.972826 201.73484 829.009004 132.567527z"  horiz-adv-x="1024" />

    
    <glyph glyph-name="icon-test" unicode="&#58951;" d="M958.244 761.485c-33.298 16.109-68.41 23.743-104.463 27.597-7.92 0.848-16.010 0.125-26.531 0.125 126.186-104.457 193.944-236.157 196.669-397.607 2.309-136.7-44.828-256.318-138.022-357.239-177.47-192.193-497.773-229.087-722.417-27.259-5.771-37.258-4.731-73.756 1.462-113.104-18.232 21.498-31.42 42.771-41.206 66.061-15.578 37.074-25.186 75.682-29.598 115.697-0.89 8.071-4.038 16.653-8.507 23.451-42.231 64.236-69.507 134.209-80.427 210.181-7.484 52.052-6.943 104.114 1.926 156.279 26.599 156.445 108.662 275.374 243.167 358.103 69.334 42.643 145.624 65.477 227.147 71.001 88.36 5.985 172.373-9.918 252.705-46.806 6.815-3.129 14.999-4.56 22.556-4.592 52.394-0.228 102.592-10.741 150.657-31.283 24.039-10.275 41.772-27.933 54.882-50.605zM180.793 114.563c-3.434-17.476-7.027-32.89-9.2-48.503-0.683-4.909 0.777-12.018 4.072-15.296 61.884-61.525 135.3-103.454 220.13-123.896 76.62-18.464 153.679-18.313 230.254 1.711 100.158 26.191 182.979 79.631 248.537 159.445 40.958 49.866 70.28 105.919 88.243 168.1 12.74 44.104 18.593 89.031 18.378 134.599-0.22 46.301-7.566 91.688-21.679 136.086-33.557 105.558-96.713 188.762-188.11 250.795-4.951 3.362-13.242 3.906-19.515 2.896-47.906-7.694-89.099-31.62-130.723-54.623-44.293-24.474-83.406-56.002-122.55-87.589-4.355-3.519-9.855-7.212-15.14-7.753-67.97-6.949-122.042-38.126-161.964-93.063-10.904-15.008-18.646-32.305-28.159-49.117h427.646c-34.55 82.875-93.391 130.501-183.706 142.491 4.277 3.229 6.071 4.614 7.897 5.955 25.75 18.914 50.854 38.794 77.438 56.461 26.874 17.856 55.128 33.667 82.979 50.027 6.407 3.762 13.095 5.468 20.841 0.866 69.471-41.287 120.348-98.899 153.479-172.404 24.374-54.074 37.16-111.029 41.244-169.887 1.629-23.462 0.268-47.132 0.268-73.598h-634.93c3.949-42.050 18.217-76.925 43.414-106.673 46.41-54.797 108.738-74.977 177.938-75.7 71.845-0.752 134.71 24.91 188.667 72.036 5.145 4.493 8.567 4.546 14.25 1.841 34.715-16.538 69.626-32.661 104.44-48.985 17.451-8.182 34.843-16.492 53.145-25.168-2.443-4.271-4.045-7.771-6.255-10.828-50.218-69.466-115.192-119.361-198.019-143.089-82.871-23.741-167.079-27.866-252.055-10.31-79.833 16.493-150.209 50.591-208.198 108.563-7.384 7.38-14.296 15.231-23.057 24.61zM92.982 163.882c0.832 5.614 1.122 8.589 1.727 11.499 6.153 29.609 8.133 60.923 19.324 88.503 36.758 90.594 92.643 169.871 154.319 245.198 12.181 14.876 24.344 29.765 36.515 44.649-30.652-19.561-59.525-41.063-82.792-68.835-23.009-27.467-46.263-54.884-67.083-83.981-20.905-29.216-38.939-60.483-58.25-90.881-0.605 3.36-1.512 7.741-2.176 12.159-8.65 57.641-6.415 114.668 7.421 171.488 42.968 176.45 202.432 305.4 384.596 310.357 16.284 0.443 32.948-0.791 48.762 2.257 30.56 5.889 60.611 14.373 90.929 21.559 8.872 2.106 17.922 3.454 29.365 5.615-163.657 57.002-378.585 14.861-513.303-150.569-137.579-168.948-126.34-386.335-49.354-519.018z"  horiz-adv-x="1024" />

    
    <glyph glyph-name="sogou" unicode="&#58958;" d="M0 350.11v66.399c1.558 11.315 3.034 22.644 4.685 33.944 23.006 157.431 101.241 279.043 232.387 363.694 116.292 75.063 244.408 99.522 378.512 69.139 207.062-46.915 340.138-176.642 395.442-386.657 6.643-25.219 8.755-51.68 12.968-77.564v-71.507c-0.78-3.646-1.934-7.254-2.288-10.942-12.32-128.197-64.558-237.13-157.236-323.783-125.799-117.621-275.133-160.657-443.085-132.495-202.447 33.943-363.208 189.304-409.138 393.202-5.666 25.152-8.24 51.029-12.246 76.57zM691.519 2.442c0.655-0.995 1.313-1.987 1.968-2.98 20.67 12.226 41.902 23.568 61.917 36.826 137.317 90.954 215.407 271.603 184.913 435.004-26.958 144.453-107.944 248.171-239.558 308.413-52.484 24.022-108.439 35.172-166.311 22.306-50.385-11.201-84.024-42.437-100.95-92.126-16.302-47.856-5.092-89.916 26.216-127.713 23.224-28.039 52.328-48.478 83.682-65.336 40.020-21.519 81.589-40.091 121.217-62.307 55.662-31.204 98.302-75.681 121.518-137.112 29.039-76.836 15.218-150.494-18.34-221.935-17.546-37.349-43.213-68.449-76.272-93.040zM298.314 779.118c-0.786-0.437-4.881-2.535-8.797-4.937-6.424-3.939-12.831-7.92-19.073-12.149-115.956-78.548-181.937-188.602-194.605-329.774-10.136-112.95 22.285-214.357 90.571-303.59 42.94-56.114 93.313-100.636 165.159-115.094 54.524-10.971 107.615-15.243 160.23 7.569 69.588 30.172 112.054 120.643 54.904 195.559-26.619 34.893-61.735 58.974-99.354 79.418-35.561 19.325-72.59 35.964-107.463 56.455-145.979 85.779-161.528 250.148-91.188 366.495 13.905 23.002 34.368 41.879 49.617 60.049z"  horiz-adv-x="1024" />

    
    <glyph glyph-name="sogou1" unicode="&#58920;" d="M716.842667-74.24L759.04-128c66.602667 28.842667 124.842667 69.12 172.842667 121.642667l-40.362667 56.234666a439.978667 439.978667 0 0 0-174.08-124.117333h-0.597333zM512-51.157333c-246.4 0-446.08 197.077333-446.08 441.6C65.92 633.6 265.6 830.72 512 830.72s446.122667-198.4 446.122667-441.6c0-108.8-40.362667-208.682667-106.965334-285.44l40.32-53.802667C972.842667 139.562667 1024 258.602667 1024 389.12 1024 670.08 794.88 896 512 896S0 669.397333 0 390.4c0-280.32 229.12-506.88 512-506.88 72.96 0 142.08 14.762667 204.842667 42.24l-41.002667 53.76c-51.2-19.2-106.24-30.677333-163.84-30.677333zM768 356.437333c-96 79.36-227.84 89.642667-332.842667 151.722667-32 20.437333-6.314667 59.52 25.685334 60.8 115.157333 19.2 229.077333-26.88 336.597333-64l6.442667 113.28c-134.442667 48.64-280.32 80-422.442667 57.6-51.2-12.8-102.4-28.8-138.837333-66.56-49.962667-51.2-41.002667-143.36 16.597333-184.32 95.402667-74.88 220.842667-85.802667 325.162667-143.36 40.96-16.64 23.68-71.68-16.682667-75.52-124.8-23.68-247.68 30.762667-355.2 89.6-1.28-43.52-2.56-85.76-2.56-128 136.32-60.117333 288-88.277333 435.2-65.237333 49.92 9.6 101.12 25.6 137.6 62.037333 52.437333 51.2 47.402667 149.802667-14.08 192H768z"  horiz-adv-x="1024" />

    
    <glyph glyph-name="app1" unicode="&#58889;" d="M147.050 846.049h201.49c41.689 0 75.392-33.505 75.392-75.108v-224.419c0-41.499-33.764-75.108-75.392-75.108h-201.49c-41.689 0-75.392 33.505-75.392 75.108v224.419c0 41.499 33.764 75.108 75.392 75.108zM21.333 546.522c0-69.173 56.216-125.059 125.716-125.059h201.49c69.453 0 125.716 56.004 125.716 125.059v224.419c0 69.173-56.216 125.059-125.716 125.059h-201.49c-69.453 0-125.716-56.004-125.716-125.059v-224.419zM675.46 846.049h201.49c41.689 0 75.392-33.505 75.392-75.108v-224.419c0-41.499-33.764-75.108-75.392-75.108h-201.49c-41.689 0-75.392 33.505-75.392 75.108v224.419c0 41.499 33.764 75.108 75.392 75.108zM549.744 546.522c0-69.173 56.216-125.059 125.716-125.059h201.49c69.453 0 125.716 56.004 125.716 125.059v224.419c0 69.173-56.216 125.059-125.716 125.059h-201.49c-69.453 0-125.716-56.004-125.716-125.059v-224.419zM147.050 296.585h201.49c41.689 0 75.392-33.505 75.392-75.108v-224.419c0-41.499-33.764-75.108-75.392-75.108h-201.49c-41.689 0-75.392 33.505-75.392 75.108v224.419c0 41.499 33.764 75.108 75.392 75.108zM21.333-2.941c0-69.173 56.216-125.059 125.716-125.059h201.49c69.453 0 125.716 56.004 125.716 125.059v224.419c0 69.173-56.216 125.059-125.716 125.059h-201.49c-69.453 0-125.716-56.004-125.716-125.059v-224.419zM874.687-78.049h-199.291c-41.65 0-75.327 33.501-75.327 75.108v224.419c0 41.499 33.764 75.108 75.392 75.108h201.49c41.692 0 75.392-33.469 75.392-75.006v-224.645c0-13.794 11.266-24.976 25.162-24.976s25.162 11.182 25.162 24.976v224.645c0 69.117-56.224 124.957-125.716 124.957h-201.49c-69.453 0-125.716-56.004-125.716-125.059v-224.419c0-69.169 56.184-125.059 125.652-125.059h200.976c14.475 0 25.741 11.182 25.741 24.976 0 13.794-11.266 24.976-25.162 24.976h-2.264z"  horiz-adv-x="1024" />

    
    <glyph glyph-name="skinfill" unicode="&#59340;" d="M224 96c0-9.6 3.2-44.8 6.4-54.4 6.4-48-48-76.8-48-76.8s80-41.6 147.2 0 134.4 134.4 38.4 195.2c-22.4 12.8-41.6 19.2-57.6 19.2C259.2 179.2 227.2 134.4 224 96zM560 220.8l-32-51.2c-51.2-51.2-83.2-32-83.2-32 25.6-67.2 0-112-12.8-128 25.6-6.4 51.2-9.6 80-9.6 54.4 0 102.4 9.6 150.4 32l0 0c3.2 0 3.2 3.2 3.2 3.2 22.4 16 12.8 35.2 6.4 44.8-9.6 12.8-12.8 25.6-12.8 41.6 0 54.4 60.8 99.2 137.6 99.2 6.4 0 12.8 0 22.4 0 12.8 0 38.4-9.6 48 25.6 0 3.2 0 3.2 3.2 6.4 0 3.2 3.2 6.4 3.2 6.4 6.4 16 6.4 16 6.4 19.2 9.6 35.2 16 73.6 16 115.2 0 105.6-41.6 198.4-108.8 268.8C704 499.2 560 220.8 560 220.8zM224 476.8c0 28.8 22.4 51.2 51.2 51.2 28.8 0 51.2-22.4 51.2-51.2 0-28.8-22.4-51.2-51.2-51.2C246.4 425.6 224 448 224 476.8zM320 611.2c0 22.4 19.2 41.6 41.6 41.6 22.4 0 41.6-19.2 41.6-41.6 0-22.4-19.2-41.6-41.6-41.6C339.2 569.6 320 588.8 320 611.2zM457.6 688c0 12.8 12.8 25.6 25.6 25.6 12.8 0 25.6-12.8 25.6-25.6 0-12.8-12.8-25.6-25.6-25.6C470.4 662.4 457.6 675.2 457.6 688zM128 390.4C128 304 153.6 224 201.6 160c28.8 60.8 112 60.8 124.8 60.8-16 51.2 16 99.2 16 99.2l316.8 422.4c-48 19.2-99.2 32-150.4 32C297.6 777.6 128 604.8 128 390.4zM764.8 809.6c-22.4-19.2-390.4-518.4-390.4-518.4-22.4-28.8-12.8-76.8 22.4-99.2l9.6-6.4c35.2-22.4 80-12.8 99.2 25.6 0 0 6.4 12.8 9.6 19.2 54.4 105.6 275.2 524.8 288 553.6 6.4 19.2-3.2 32-19.2 32C777.6 819.2 771.2 816 764.8 809.6z"  horiz-adv-x="1024" />

    
    <glyph glyph-name="skin" unicode="&#59341;" d="M857.6 627.2c-9.6 12.8-32 16-44.8 6.4-12.8-9.6-16-32-6.4-44.8 38.4-54.4 57.6-121.6 57.6-201.6 0-48-9.6-92.8-28.8-134.4-12.8 3.2-22.4 3.2-35.2 3.2-86.4 0-156.8-64-156.8-140.8 0-12.8 3.2-28.8 6.4-41.6-38.4-16-76.8-25.6-118.4-25.6-19.2 0-32-16-32-32s16-32 32-32c60.8 3.2 118.4 16 172.8 44.8 9.6 3.2 12.8 12.8 16 19.2 3.2 9.6 0 19.2-3.2 25.6-9.6 12.8-12.8 25.6-12.8 38.4 0 41.6 41.6 76.8 92.8 76.8 12.8 0 25.6-3.2 38.4-6.4 16-6.4 32 0 41.6 16 32 57.6 48 124.8 48 188.8 3.2 92.8-19.2 176-67.2 240zM185.6 195.2c16 9.6 22.4 28.8 12.8 41.6-25.6 51.2-38.4 99.2-38.4 150.4 0 188.8 153.6 342.4 342.4 342.4 22.4 0 51.2-3.2 67.2-6.4s35.2 9.6 38.4 25.6-9.6 35.2-25.6 38.4c-22.4 3.2-54.4 6.4-80 6.4-224 0-406.4-182.4-406.4-406.4 0-64 12.8-118.4 44.8-179.2 6.4-9.6 19.2-16 28.8-16 6.4 0 9.6 0 16 3.2zM224 464c0-26.51 21.49-48 48-48s48 21.49 48 48c0 26.51-21.49 48-48 48-26.51 0-48-21.49-48-48zM320 608c0-17.673 14.327-32 32-32s32 14.327 32 32c0 17.673-14.327 32-32 32-17.673 0-32-14.327-32-32zM524.8 192l297.6 556.8c9.6 25.6 3.2 57.6-22.4 73.6s-57.6 12.8-76.8-12.8l-390.4-496s0-3.2-3.2-3.2c-9.6-16-12.8-35.2-9.6-51.2 0-3.2 3.2-6.4 3.2-9.6-41.6-3.2-102.4-25.6-115.2-89.6-9.6-44.8 3.2-67.2 9.6-83.2 0-3.2 3.2-6.4 3.2-3.2l-3.2-3.2c-16-22.4-32-25.6-32-25.6-12.8-3.2-22.4-12.8-25.6-25.6-3.2-12.8 3.2-25.6 12.8-32 32-22.4 89.6-51.2 144-51.2 41.6 0 83.2 16 118.4 54.4 54.4 64 44.8 160 44.8 166.4 19.2 6.4 35.2 19.2 44.8 35.2zM384 275.2l352 451.2-265.6-502.4c-3.2-3.2-6.4-6.4-6.4-3.2l-80 48v6.4zM387.2 32c-38.4-44.8-92.8-35.2-131.2-19.2 6.4 6.4 9.6 12.8 16 19.2 22.4 32 9.6 57.6 3.2 70.4-6.4 9.6-9.6 22.4-6.4 44.8 6.4 28.8 44.8 35.2 60.8 38.4l89.6-48c0-25.6-3.2-73.6-32-105.6z"  horiz-adv-x="1024" />

    
    <glyph glyph-name="file" unicode="&#58957;" d="M869.006462 15.332453 165.670715 15.332453c-3.466961 0.642636-6.928806 1.357927-10.416234 1.918699-42.908252 6.864338-79.71146 40.74396-90.024339 82.942037-0.99056 4.059456-1.697665 8.188496-2.533706 12.289907L62.696436 652.608667c0.454348 2.176572 0.899486 4.353145 1.367137 6.522554 9.824763 45.260833 37.551244 74.27361 80.996732 88.787162 6.653537 2.222621 13.728676 3.199878 20.61041 4.751211l242.86433 0c3.989871-2.605338 8.575306-4.606925 11.865235-7.90504 31.887244-31.969109 63.582107-64.123436 95.226828-96.341209 2.934842-2.990101 5.861498-4.300956 10.120498-4.29277 105.524358 0.119727 211.045647 0.11154 316.568982 0.041956 6.932899-0.008186 13.921058-0.318248 20.793582-1.216711 45.231157-5.960759 84.711334-41.614793 95.39772-85.936231 1.052982-4.370541 1.868557-8.801457 2.793626-13.201673l0-433.275008c-0.638543-3.282766-1.238201-6.577812-1.915629-9.846252-8.582469-41.289382-32.04995-69.310575-73.013921-81.557504C880.707968 17.441487 874.795305 16.573723 869.006462 15.332453L869.006462 15.332453zM516.616646 58.874131 853.686545 58.874131c2.587941 0 5.180999 0.005117 7.774057 0.077771 11.299347 0.294712 21.698185 3.586688 30.825053 10.19213 18.267039 13.229303 25.568329 31.782867 25.568329 53.806463-0.021489 136.480394 0.01228 272.951579-0.095167 409.43402-0.004093 5.431709-0.532119 11.04966-1.938142 16.281825-8.157797 30.494525-37.551244 52.244898-70.28374 52.250014-110.416785 0.030699-220.832548 0.063445-331.240123-0.090051-8.711406-0.013303-15.503089 2.715855-21.578458 8.916067-31.621185 32.252565-63.402005 64.345494-95.252411 96.365768-1.602498 1.606591-4.383844 2.888793-6.613628 2.892887-71.39505 0.150426-142.794194-0.197498-214.18822 0.261966-35.032888 0.221034-71.059406-31.486108-70.861908-71.172993 0.839111-170.476673 0.355087-340.953346 0.355087-511.428995 0-1.462305 0.01842-2.914376 0-4.370541-0.110517-14.575973 4.979408-27.259854 14.426571-38.131459 15.152095-17.408485 34.498722-25.341155 57.498552-25.326828C290.923394 58.922227 403.772578 58.874131 516.616646 58.874131L516.616646 58.874131zM516.616646 58.874131"  horiz-adv-x="1024" />

    
    <glyph glyph-name="file1" unicode="&#58903;" d="M809.6 44.8H214.4c-54.4 0-96 44.8-96 96V627.2c0 54.4 44.8 96 96 96h128c54.4 0 96-44.8 96-96v-25.6c0-6.4 6.4-9.6 9.6-9.6h355.2c54.4 0 96-44.8 96-96v-352c6.4-54.4-38.4-99.2-89.6-99.2zM214.4 659.2c-19.2 0-32-16-32-32v-483.2c0-19.2 16-32 32-32h592c19.2 0 32 16 32 32v352c0 19.2-16 32-32 32H451.2c-41.6 0-73.6 35.2-73.6 73.6v25.6c0 19.2-16 32-32 32H214.4z"  horiz-adv-x="1024" />

    
    <glyph glyph-name="app2" unicode="&#58947;" d="M271.958852 831.99842c-115.276539 0-208.874831-93.670541-208.874831-208.950693C63.084021 507.662816 156.628127 414.100647 272.016651 414.100647h144.894925c35.347715 0 63.918494 28.762239 63.918495 64.106342V623.105526c-0.01445 115.36685-93.500757 208.892893-208.871219 208.892894zM416.875452 478.206989v-0.025288a0.932009 0.932009 0 0 0 0.043349-0.144497H272.016651a145.241719 145.241719 0 1 0 144.858801 145.06471v-144.894925zM416.897127 353.772917H272.016651c-115.370462 0-208.896506-93.515206-208.896506-208.885668 0-115.276539 93.562168-208.892893 208.856769-208.892893 115.370462 0 208.856769 93.529656 208.856769 208.900118v144.894925c-0.018062 35.351327-28.592454 63.983518-63.936556 63.983518z m-0.021675-208.874831a144.721528 144.721528 0 0 0-88.483079-133.504905C310.564987 3.854021 291.59607 0.115146 272.016651 0.115146c-19.564969 0-38.519436 3.738874-56.354047 11.28526A144.880476 144.880476 0 0 0 272.016651 289.832748h144.920212a0.093923 0.093923 0 0 1-0.043349 0v-144.920212zM751.101914 353.772917h-144.894925A63.965456 63.965456 0 0 1 542.227083 289.793011v-144.894925c0-115.370462 93.515206-208.896506 208.885668-208.896506 115.276539 0 208.892893 93.60913 208.892893 208.885669-0.003612 115.370462-93.533269 208.885668-208.90373 208.885668zM884.686293 88.551264a144.927437 144.927437 0 0 0-278.519041 56.354047V289.832748h144.920212A144.996074 144.996074 0 0 0 884.686293 88.551264zM606.206989 414.100647h144.894925c115.370462 0 208.896506 93.562168 208.896506 208.950693 0 115.276539-93.60913 208.921793-208.885669 208.921792-115.370462 0-208.885668-93.497144-208.885668-208.867606v-144.894925c0-35.347715 28.632191-64.109954 63.979906-64.109954z m-0.039737 209.004879A144.949112 144.949112 0 1 0 751.101914 478.040816H606.167252a0.520191 0.520191 0 0 0 0 0.144498V623.105526z"  horiz-adv-x="1024" />

    
    <glyph glyph-name="home_light" unicode="&#59348;" d="M951.467 470.044l-386.133 307.2c-29.867 23.467-76.8 23.467-106.667 0l-386.133-307.2c-8.533-6.4-10.667-21.333-4.267-29.867 6.4-8.533 21.333-10.667 29.867-4.267l386.133 309.333c14.933 10.667 40.533 10.667 53.333 0l386.133-307.2c6.4-4.267 10.667-4.267 14.933-4.267 6.4 0 12.8 2.133 17.067 8.533 6.4 8.533 6.4 21.333-4.267 27.733zM874.667 391.111c-12.8 0-21.333-8.533-21.333-21.333v-311.467c0-19.2-8.533-29.867-27.733-29.867h-204.8v132.267c0 57.6-46.933 102.4-104.533 102.4h-4.267c-57.6 0-104.533-46.933-104.533-102.4v-132.267h-204.8c-19.2 0-32 10.667-32 29.867v311.467c0 12.8-8.533 21.333-21.333 21.333s-21.333-8.533-21.333-21.333v-311.467c0-42.667 32-72.533 74.667-72.533h226.133c12.8 0 21.333 8.533 21.333 21.333v153.6c0 32 27.733 59.733 61.867 59.733h4.267c34.133 0 61.867-27.733 61.867-59.733v-153.6c0-12.8 8.533-21.333 21.333-21.333h226.133c42.667 0 70.4 29.867 70.4 72.533v311.467c0 10.667-8.533 21.333-21.333 21.333z"  horiz-adv-x="1024" />

    
    <glyph glyph-name="my_light" unicode="&#59349;" d="M800 544C800 701.866667 672 832 512 832S224 701.866667 224 544c0-117.333333 70.4-219.733333 172.8-264.533333-130.133333-42.666667-236.8-153.6-270.933333-296.533334-2.133333-10.666667 4.266667-23.466667 14.933333-25.6h4.266667c10.666667 0 19.2 6.4 21.333333 17.066667C204.8 136.533333 349.866667 256 509.866667 256h2.133333c160 0 288 130.133333 288 288z m-533.333333 0C266.666667 678.4 377.6 789.333333 512 789.333333s245.333333-110.933333 245.333333-245.333333S646.4 298.666667 512 298.666667s-245.333333 110.933333-245.333333 245.333333zM893.866667-17.066667c-23.466667 96-78.933333 179.2-157.866667 234.666667l-21.333333 14.933333c-10.666667 6.4-23.466667 4.266667-29.866667-6.4-6.4-10.666667-4.266667-23.466667 6.4-29.866666l21.333333-14.933334c70.4-49.066667 121.6-123.733333 140.8-211.2 2.133333-10.666667 10.666667-17.066667 21.333334-17.066666h4.266666c10.666667 6.4 17.066667 17.066667 14.933334 29.866666z"  horiz-adv-x="1024" />

    
    <glyph glyph-name="community_light" unicode="&#59350;" d="M725.333333 192c46.933333 0 85.333333 38.4 85.333334 85.333333V682.666667c0 46.933333-38.4 85.333333-85.333334 85.333333H170.666667c-46.933333 0-85.333333-38.4-85.333334-85.333333v-407.466667c0-46.933333 38.4-85.333333 85.333334-85.333333h23.466666V21.333333c0-8.533333 6.4-17.066667 12.8-19.2 2.133333 0 4.266667-2.133333 8.533334-2.133333 6.4 0 12.8 2.133333 17.066666 6.4l157.866667 183.466667H725.333333z m-509.866666 40.533333h-4.266667c-2.133333 0-4.266667 2.133333-8.533333 2.133334H170.666667c-23.466667 0-42.666667 19.2-42.666667 42.666666V682.666667c0 23.466667 19.2 42.666667 42.666667 42.666666h554.666666c23.466667 0 42.666667-19.2 42.666667-42.666666v-407.466667c0-23.466667-19.2-42.666667-42.666667-42.666667H375.466667h-2.133334c-2.133333 0-2.133333-2.133333-4.266666-2.133333 0 0-2.133333 0-2.133334-2.133333l-128-147.2V213.333333c-2.133333 10.666667-12.8 19.2-23.466666 19.2zM876.8 640c-12.8 0-21.333333-8.533333-21.333333-21.333333s10.666667-21.333333 21.333333-21.333334c23.466667 0 42.666667-19.2 42.666667-42.666666v-347.733334c0-25.6-21.333333-36.266667-42.666667-36.266666h-32c-2.133333 0-6.4 0-8.533333-2.133334h-2.133334c-12.8 0-21.333333-8.533333-21.333333-21.333333v-76.8l-78.933333 72.533333c-4.266667 4.266667-8.533333 6.4-14.933334 6.4H554.666667c-12.8 0-21.333333-8.533333-21.333334-21.333333s8.533333-21.333333 21.333334-21.333333h155.733333l108.8-100.266667c4.266667-4.266667 8.533333-6.4 14.933333-6.4 2.133333 0 6.4 0 8.533334 2.133333 8.533333 4.266667 12.8 10.666667 12.8 19.2v104.533334h21.333333c49.066667 0 85.333333 32 85.333333 78.933333V554.666667c-2.133333 46.933333-38.4 85.333333-85.333333 85.333333z"  horiz-adv-x="1024" />

    
    <glyph glyph-name="home_fill_light" unicode="&#59352;" d="M951.466667 465.066667L565.333333 770.133333c-29.866667 23.466667-76.8 23.466667-106.666666 0L72.533333 465.066667c-6.4-6.4-10.666667-14.933333-6.4-23.466667s10.666667-14.933333 19.2-14.933333h44.8v-375.466667c0-42.666667 32-72.533333 74.666667-72.533333h224c12.8 0 21.333333 8.533333 21.333333 21.333333v153.6c0 32 27.733333 59.733333 61.866667 59.733333h4.266667c34.133333 0 61.866667-27.733333 61.866666-59.733333V0c0-12.8 8.533333-21.333333 21.333334-21.333333h226.133333c42.666667 0 70.4 29.866667 70.4 72.533333V426.666667h42.666667c8.533333 0 17.066667 6.4 19.2 14.933333s2.133333 17.066667-6.4 23.466667z"  horiz-adv-x="1024" />

    
    <glyph glyph-name="community_fill_light" unicode="&#59353;" d="M725.333333 192c46.933333 0 85.333333 38.4 85.333334 85.333333V682.666667c0 46.933333-38.4 85.333333-85.333334 85.333333H170.666667c-46.933333 0-85.333333-38.4-85.333334-85.333333v-407.466667c0-46.933333 38.4-85.333333 85.333334-85.333333h23.466666V21.333333c0-8.533333 6.4-17.066667 14.933334-19.2 2.133333 0 4.266667-2.133333 6.4-2.133333 6.4 0 12.8 2.133333 17.066666 8.533333L384 192h341.333333zM874.666667 640c-12.8 0-21.333333-8.533333-21.333334-21.333333s10.666667-21.333333 21.333334-21.333334c23.466667 0 42.666667-19.2 42.666666-42.666666v-347.733334c0-25.6-21.333333-36.266667-42.666666-36.266666h-32c-2.133333 0-6.4 0-8.533334-2.133334H832c-12.8 0-21.333333-8.533333-21.333333-21.333333v-76.8l-78.933334 72.533333c-4.266667 4.266667-8.533333 6.4-14.933333 6.4H554.666667c-12.8 0-21.333333-8.533333-21.333334-21.333333s8.533333-21.333333 21.333334-21.333333h155.733333l108.8-100.266667c4.266667-4.266667 8.533333-6.4 14.933333-6.4 2.133333 0 6.4 0 8.533334 2.133333 8.533333 4.266667 12.8 10.666667 12.8 19.2v104.533334h21.333333c49.066667 0 85.333333 32 85.333333 78.933333V554.666667c-2.133333 46.933333-40.533333 85.333333-87.466666 85.333333z"  horiz-adv-x="1024" />

    
    <glyph glyph-name="my_fill_light" unicode="&#59354;" d="M616.533333 277.333333c106.666667 42.666667 181.333333 147.2 181.333334 266.666667C797.866667 704 669.866667 832 509.866667 832c-157.866667 0-288-128-288-288 0-121.6 74.666667-224 181.333333-266.666667-134.4-38.4-241.066667-151.466667-268.8-294.4-2.133333-6.4 0-12.8 4.266667-17.066666 2.133333-4.266667 8.533333-8.533333 14.933333-8.533334h712.533333c6.4 0 12.8 2.133333 17.066667 8.533334 4.266667 4.266667 6.4 10.666667 4.266667 17.066666-29.866667 142.933333-136.533333 256-270.933334 294.4z"  horiz-adv-x="1024" />

    
    <glyph glyph-name="skin_light" unicode="&#59355;" d="M846.933333 605.866667c-6.4 8.533333-21.333333 10.666667-29.866666 4.266666-8.533333-6.4-10.666667-21.333333-4.266667-29.866666 40.533333-55.466667 61.866667-128 61.866667-209.066667 0-51.2-10.666667-102.4-32-147.2-12.8 4.266667-27.733333 6.4-40.533334 6.4-81.066667 0-145.066667-59.733333-145.066666-132.266667 0-17.066667 4.266667-32 10.666666-46.933333-42.666667-19.2-85.333333-27.733333-132.266666-29.866667-12.8 0-21.333333-10.666667-21.333334-21.333333s10.666667-21.333333 21.333334-21.333333c59.733333 2.133333 117.333333 17.066667 170.666666 44.8 6.4 2.133333 8.533333 8.533333 10.666667 12.8 2.133333 6.4 0 12.8-2.133333 17.066666-8.533333 12.8-14.933333 29.866667-14.933334 44.8 0 49.066667 46.933333 89.6 102.4 89.6 14.933333 0 29.866667-2.133333 44.8-8.533333 10.666667-4.266667 21.333333 0 27.733334 10.666667 29.866667 57.6 44.8 119.466667 44.8 183.466666-2.133333 89.6-25.6 170.666667-72.533334 232.533334zM187.733333 219.733333C162.133333 270.933333 149.333333 320 149.333333 373.333333 149.333333 567.466667 307.2 725.333333 501.333333 725.333333c23.466667 0 51.2-2.133333 70.4-6.4 12.8-2.133333 23.466667 6.4 25.6 19.2 2.133333 10.666667-6.4 23.466667-17.066666 25.6-21.333333 4.266667-51.2 6.4-78.933334 6.4C283.733333 768 106.666667 590.933333 106.666667 373.333333c0-61.866667 12.8-117.333333 42.666666-174.933333 4.266667-6.4 10.666667-10.666667 19.2-10.666667 4.266667 0 6.4 0 10.666667 2.133334 10.666667 6.4 14.933333 19.2 8.533333 29.866666zM268.8 456.533333m-53.333333 0a53.333333 53.333333 0 1 1 106.666666 0 53.333333 53.333333 0 1 1-106.666666 0ZM360.533333 593.066667m-42.666666 0a42.666667 42.666667 0 1 1 85.333333 0 42.666667 42.666667 0 1 1-85.333333 0ZM480 667.733333m-32 0a32 32 0 1 1 64 0 32 32 0 1 1-64 0ZM804.266667 819.2c-21.333333 14.933333-46.933333 10.666667-64-10.666667L324.266667 268.8s0-2.133333-2.133334-2.133333c-8.533333-12.8-10.666667-29.866667-8.533333-44.8-36.266667-4.266667-87.466667-21.333333-98.133333-76.8-8.533333-40.533333 2.133333-61.866667 8.533333-76.8 4.266667-10.666667 4.266667-10.666667 0-19.2-14.933333-21.333333-36.266667-27.733333-36.266667-27.733334-8.533333-2.133333-14.933333-8.533333-17.066666-17.066666-2.133333-8.533333 2.133333-17.066667 8.533333-21.333334 32-21.333333 85.333333-49.066667 138.666667-49.066666 38.4 0 78.933333 12.8 110.933333 51.2 42.666667 51.2 40.533333 121.6 40.533333 147.2 12.8 4.266667 23.466667 14.933333 29.866667 25.6L821.333333 757.333333c10.666667 23.466667 4.266667 49.066667-17.066666 61.866667zM394.666667 14.933333c-46.933333-59.733333-119.466667-36.266667-160-14.933333 8.533333 6.4 17.066667 17.066667 25.6 27.733333 19.2 27.733333 10.666667 46.933333 4.266666 61.866667-6.4 12.8-10.666667 23.466667-6.4 49.066667 8.533333 38.4 55.466667 42.666667 70.4 42.666666L426.666667 128c0-21.333333 0-76.8-32-113.066667zM782.933333 776.533333l-320-595.2c-2.133333-4.266667-6.4-8.533333-12.8-10.666666-2.133333 0-6.4-2.133333-10.666666 0l-78.933334 49.066666c-4.266667 2.133333-4.266667 6.4-4.266666 8.533334 0 4.266667 0 10.666667 2.133333 14.933333L772.266667 782.933333c0 2.133333 4.266667 4.266667 8.533333 2.133334 4.266667-4.266667 2.133333-6.4 2.133333-8.533334z"  horiz-adv-x="1024" />

    
    <glyph glyph-name="search_light" unicode="&#59356;" d="M955.733333-27.733333l-149.333333 153.6C876.8 202.666667 917.333333 302.933333 917.333333 405.333333c0 224-181.333333 405.333333-405.333333 405.333334S106.666667 629.333333 106.666667 405.333333s181.333333-405.333333 405.333333-405.333333c64 0 125.866667 14.933333 183.466667 42.666667 10.666667 4.266667 14.933333 17.066667 8.533333 27.733333-4.266667 10.666667-19.2 14.933333-27.733333 8.533333-51.2-25.6-106.666667-38.4-164.266667-38.4-200.533333 0-362.666667 162.133333-362.666667 362.666667S311.466667 768 512 768s362.666667-162.133333 362.666667-362.666667c0-100.266667-42.666667-196.266667-115.2-264.533333-8.533333-8.533333-8.533333-21.333333 0-29.866667 2.133333-2.133333 4.266667-4.266667 8.533333-4.266666l157.866667-162.133334c4.266667-4.266667 10.666667-6.4 14.933333-6.4 6.4 0 10.666667 2.133333 14.933333 6.4 6.4 6.4 8.533333 19.2 0 27.733334z"  horiz-adv-x="1024" />

    
    <glyph glyph-name="people_list_light" unicode="&#59357;" d="M810.666667 544C810.666667 701.866667 682.666667 832 522.666667 832S234.666667 701.866667 234.666667 544c0-117.333333 70.4-217.6 170.666666-262.4-132.266667-40.533333-241.066667-153.6-275.2-298.666667-2.133333-10.666667 4.266667-23.466667 14.933334-25.6H149.333333c10.666667 0 19.2 6.4 21.333334 17.066667C211.2 136.533333 354.133333 256 514.133333 256h8.533334C682.666667 256 810.666667 384 810.666667 544z m-533.333334 0C277.333333 678.4 388.266667 789.333333 522.666667 789.333333S768 678.4 768 544 659.2 298.666667 522.666667 298.666667 277.333333 407.466667 277.333333 544zM701.866667 234.666667c0-12.8 8.533333-21.333333 21.333333-21.333334H874.666667c12.8 0 21.333333 8.533333 21.333333 21.333334s-8.533333 21.333333-21.333333 21.333333h-151.466667c-10.666667 0-21.333333-10.666667-21.333333-21.333333zM704 85.333333h170.666667c12.8 0 21.333333 8.533333 21.333333 21.333334s-8.533333 21.333333-21.333333 21.333333h-170.666667c-12.8 0-21.333333-8.533333-21.333333-21.333333s10.666667-21.333333 21.333333-21.333334zM620.8-2.133333h-21.333333c-12.8 0-21.333333-8.533333-21.333334-21.333334s8.533333-21.333333 21.333334-21.333333h21.333333c12.8 0 21.333333 8.533333 21.333333 21.333333s-10.666667 21.333333-21.333333 21.333334zM597.333333 85.333333h21.333334c12.8 0 21.333333 8.533333 21.333333 21.333334s-8.533333 21.333333-21.333333 21.333333h-21.333334c-12.8 0-21.333333-8.533333-21.333333-21.333333s8.533333-21.333333 21.333333-21.333334zM874.666667 0h-170.666667c-12.8 0-21.333333-8.533333-21.333333-21.333333s8.533333-21.333333 21.333333-21.333334h170.666667c12.8 0 21.333333 8.533333 21.333333 21.333334s-8.533333 21.333333-21.333333 21.333333z"  horiz-adv-x="1024" />

    
    <glyph glyph-name="message_light" unicode="&#59358;" d="M341.333333 490.666667h341.333334c12.8 0 21.333333 8.533333 21.333333 21.333333s-8.533333 21.333333-21.333333 21.333333H341.333333c-12.8 0-21.333333-8.533333-21.333333-21.333333s10.666667-21.333333 21.333333-21.333333zM341.333333 362.666667h256c12.8 0 21.333333 8.533333 21.333334 21.333333s-8.533333 21.333333-21.333334 21.333333H341.333333c-12.8 0-21.333333-8.533333-21.333333-21.333333s10.666667-21.333333 21.333333-21.333333zM957.866667 448c0 211.2-200.533333 381.866667-445.866667 381.866667-247.466667 0-448-170.666667-448-381.866667 0-108.8 66.133333-217.6 181.333333-294.4 10.666667-6.4 23.466667-4.266667 29.866667 6.4 6.4 10.666667 4.266667 23.466667-6.4 29.866667C209.066667 230.4 106.666667 317.866667 106.666667 448c0 187.733333 181.333333 339.2 405.333333 339.2 221.866667 0 403.2-151.466667 403.2-339.2S733.866667 108.8 512 108.8c-2.133333 0-4.266667 0-6.4-2.133333-10.666667 4.266667-21.333333-2.133333-25.6-12.8-8.533333-25.6-70.4-66.133333-125.866667-96 23.466667 76.8 12.8 89.6 8.533334 96-4.266667 6.4-12.8 10.666667-21.333334 10.666666-12.8 0-21.333333-8.533333-21.333333-21.333333 0-6.4 2.133333-10.666667 6.4-14.933333 0-17.066667-14.933333-66.133333-27.733333-104.533334-2.133333-8.533333 0-17.066667 6.4-23.466666 4.266667-4.266667 8.533333-6.4 14.933333-6.4 2.133333 0 6.4 0 8.533333 2.133333 25.6 10.666667 151.466667 68.266667 185.6 128 245.333333 2.133333 443.733333 172.8 443.733334 384z"  horiz-adv-x="1024" />

    
    <glyph glyph-name="close_light" unicode="&#59359;" d="M541.866667 384l262.4 262.4c8.533333 8.533333 8.533333 21.333333 0 29.866667s-21.333333 8.533333-29.866667 0L512 413.866667 249.6 676.266667c-8.533333 8.533333-21.333333 8.533333-29.866667 0-8.533333-8.533333-8.533333-21.333333 0-29.866667L482.133333 384 219.733333 121.6c-8.533333-8.533333-8.533333-21.333333 0-29.866667 4.266667-4.266667 10.666667-6.4 14.933334-6.4s10.666667 2.133333 14.933333 6.4L512 352l260.266667-262.4c4.266667-4.266667 10.666667-6.4 14.933333-6.4 6.4 0 10.666667 2.133333 14.933333 6.4 8.533333 8.533333 8.533333 21.333333 0 29.866667L541.866667 384z"  horiz-adv-x="1024" />

    
    <glyph glyph-name="add_light" unicode="&#59360;" d="M832 405.333333H533.333333V701.866667c0 12.8-8.533333 21.333333-21.333333 21.333333s-21.333333-8.533333-21.333333-21.333333V405.333333l-298.666667 2.133334c-12.8 0-21.333333-8.533333-21.333333-21.333334s8.533333-21.333333 21.333333-21.333333l298.666667-2.133333v-298.666667c0-12.8 8.533333-21.333333 21.333333-21.333333s21.333333 8.533333 21.333333 21.333333V362.666667h298.666667c12.8 0 21.333333 8.533333 21.333333 21.333333 0 10.666667-10.666667 21.333333-21.333333 21.333333z"  horiz-adv-x="1024" />

    
    <glyph glyph-name="friend_add_light" unicode="&#59361;" d="M797.866667 541.866667c0 157.866667-130.133333 288-288 288S221.866667 699.733333 221.866667 541.866667c0-117.333333 70.4-219.733333 172.8-264.533334-130.133333-42.666667-236.8-153.6-270.933334-296.533333-2.133333-10.666667 4.266667-21.333333 17.066667-23.466667h4.266667c10.666667 0 19.2 6.4 21.333333 17.066667C206.933333 138.666667 349.866667 256 509.866667 256c157.866667-2.133333 288 128 288 285.866667z m-533.333334 0c0 134.4 110.933333 245.333333 245.333334 245.333333s245.333333-110.933333 245.333333-245.333333-110.933333-245.333333-245.333333-245.333334c-136.533333 0-245.333333 110.933333-245.333334 245.333334zM917.333333 106.666667h-85.333333v85.333333c0 12.8-8.533333 21.333333-21.333333 21.333333s-21.333333-8.533333-21.333334-21.333333v-85.333333h-85.333333c-12.8 0-21.333333-8.533333-21.333333-21.333334s8.533333-21.333333 21.333333-21.333333h85.333333v-85.333333c0-12.8 8.533333-21.333333 21.333334-21.333334s21.333333 8.533333 21.333333 21.333334v85.333333h85.333333c12.8 0 21.333333 8.533333 21.333334 21.333333s-8.533333 21.333333-21.333334 21.333334z"  horiz-adv-x="1024" />

    
    <glyph glyph-name="edit_light" unicode="&#59362;" d="M832 618.666667c-12.8 0-21.333333-8.533333-21.333333-21.333334v-554.666666c0-23.466667-19.2-42.666667-42.666667-42.666667H192c-23.466667 0-42.666667 19.2-42.666667 42.666667V682.666667c0 23.466667 19.2 42.666667 42.666667 42.666666h490.666667c12.8 0 21.333333 8.533333 21.333333 21.333334s-8.533333 21.333333-21.333333 21.333333H192c-46.933333 0-85.333333-38.4-85.333333-85.333333v-640c0-46.933333 38.4-85.333333 85.333333-85.333334h576c46.933333 0 85.333333 38.4 85.333333 85.333334V597.333333c0 12.8-8.533333 21.333333-21.333333 21.333334zM910.933333 825.6c-8.533333 8.533333-21.333333 8.533333-29.866666 0L563.2 507.733333c-8.533333-8.533333-8.533333-21.333333 0-29.866666 4.266667-4.266667 10.666667-6.4 14.933333-6.4s10.666667 2.133333 14.933334 6.4L910.933333 793.6c8.533333 8.533333 8.533333 23.466667 0 32zM448 512h-192c-12.8 0-21.333333-8.533333-21.333333-21.333333s8.533333-21.333333 21.333333-21.333334h192c12.8 0 21.333333 8.533333 21.333333 21.333334s-8.533333 21.333333-21.333333 21.333333zM704 341.333333H256c-12.8 0-21.333333-8.533333-21.333333-21.333333s8.533333-21.333333 21.333333-21.333333h448c12.8 0 21.333333 8.533333 21.333333 21.333333s-8.533333 21.333333-21.333333 21.333333zM704 172.8H256c-12.8 0-21.333333-8.533333-21.333333-21.333333s8.533333-21.333333 21.333333-21.333334h448c12.8 0 21.333333 8.533333 21.333333 21.333334s-8.533333 21.333333-21.333333 21.333333z"  horiz-adv-x="1024" />

    
    <glyph glyph-name="camera_light" unicode="&#59363;" d="M320 330.667c0-100.267 81.067-181.333 181.333-181.333s181.333 81.067 181.333 181.333-81.067 181.333-181.333 181.333-181.333-81.067-181.333-181.333zM640 330.667c0-76.8-61.867-138.667-138.667-138.667-74.667 0-138.667 61.867-138.667 138.667s61.867 138.667 138.667 138.667 138.667-61.867 138.667-138.667zM853.333 661.334h-298.667c-12.8 0-21.333-8.533-21.333-21.333s8.533-21.333 21.333-21.333h298.667c23.467 0 42.667-19.2 42.667-42.667v-512c0-23.467-19.2-42.667-42.667-42.667h-661.333c-23.467 0-42.667 17.067-42.667 40.533v512c0 25.6 21.333 44.8 42.667 44.8h104.533c12.8 0 21.333 8.533 21.333 21.333s-8.533 21.333-21.333 21.333h-104.533c-46.933 0-85.333-40.533-85.333-87.467v-512c0-46.933 38.4-83.2 85.333-83.2h661.333c46.933 0 85.333 38.4 85.333 85.333v512c0 46.933-36.267 85.333-85.333 85.333zM746.667 522.667c0 0 0 0 0 0 0-29.455 23.878-53.333 53.333-53.333 29.455 0 53.333 23.878 53.333 53.333 0 0 0 0 0 0 0 0 0 0 0 0 0 29.455-23.878 53.333-53.333 53.333-29.455 0-53.333-23.878-53.333-53.333s0 0 0 0zM341.333 704h168.533c12.8 0 21.333 8.533 21.333 21.333s-8.533 21.333-21.333 21.333h-168.533c-12.8 0-21.333-8.533-21.333-21.333s10.667-21.333 21.333-21.333z"  horiz-adv-x="1024" />

    
    </font>
</defs>
</svg>
