<?xml version="1.0" encoding="UTF-8"?>
<svg width="96px" height="60px" viewBox="0 0 96 60" version="1.1" xmlns="http://www.w3.org/2000/svg" xmlns:xlink="http://www.w3.org/1999/xlink">
    <!-- Generator: Sketch 61.2 (89653) - https://sketch.com -->
    <title>icon-theme-light</title>
    <desc>Created with Sketch.</desc>
    <g id="左右切换" stroke="none" stroke-width="1" fill="none" fill-rule="evenodd">
        <g id="icon-theme-light" fill-rule="nonzero">
            <rect id="Rectangle" fill="#1492FF" x="0" y="0" width="96" height="60"></rect>
            <rect id="Rectangle" stroke="#FFFFFF" fill="#FFFFFF" x="0.5" y="0.5" width="17" height="59"></rect>
            <rect id="Rectangle" fill="#FFFFFF" x="30" y="8" width="54" height="10" rx="1"></rect>
            <rect id="Rectangle" fill="#A1D3FF" x="30" y="24" width="24" height="12" rx="2"></rect>
            <rect id="Rectangle" fill="#A1D3FF" x="30" y="40" width="24" height="12" rx="2"></rect>
            <rect id="Rectangle" fill="#A1D3FF" x="60" y="24" width="24" height="12" rx="2"></rect>
            <rect id="Rectangle" fill="#A1D3FF" x="60" y="40" width="24" height="12" rx="2"></rect>
            <path d="M32,24 L42,24 L42,24 L42,36 L32,36 C30.8954305,36 30,35.1045695 30,34 L30,26 C30,24.8954305 30.8954305,24 32,24 Z" id="Rectangle" fill="#FFFFFF"></path>
            <path d="M32,40 L42,40 L42,40 L42,52 L32,52 C30.8954305,52 30,51.1045695 30,50 L30,42 C30,40.8954305 30.8954305,40 32,40 Z" id="Rectangle" fill="#FFFFFF"></path>
            <path d="M62,24 L72,24 L72,24 L72,36 L62,36 C60.8954305,36 60,35.1045695 60,34 L60,26 C60,24.8954305 60.8954305,24 62,24 Z" id="Rectangle" fill="#FFFFFF"></path>
            <path d="M62,40 L72,40 L72,40 L72,52 L62,52 C60.8954305,52 60,51.1045695 60,50 L60,42 C60,40.8954305 60.8954305,40 62,40 Z" id="Rectangle" fill="#FFFFFF"></path>
            <rect id="Rectangle" fill="#FFFFFF" x="44" y="27" width="7" height="2" rx="0.5"></rect>
            <rect id="Rectangle" fill="#FFFFFF" x="44" y="43" width="7" height="2" rx="0.5"></rect>
            <rect id="Rectangle" fill="#FFFFFF" x="74" y="27" width="7" height="2" rx="0.5"></rect>
            <rect id="Rectangle" fill="#FFFFFF" x="74" y="43" width="7" height="2" rx="0.5"></rect>
            <rect id="Rectangle" fill="#FFFFFF" x="44" y="31" width="7" height="1" rx="0.5"></rect>
            <rect id="Rectangle" fill="#FFFFFF" x="44" y="47" width="7" height="1" rx="0.5"></rect>
            <rect id="Rectangle" fill="#FFFFFF" x="74" y="31" width="7" height="1" rx="0.5"></rect>
            <rect id="Rectangle" fill="#FFFFFF" x="74" y="47" width="7" height="1" rx="0.5"></rect>
            <rect id="Rectangle" fill="#FFFFFF" x="44" y="33" width="7" height="1" rx="0.5"></rect>
            <rect id="Rectangle" fill="#FFFFFF" x="44" y="49" width="7" height="1" rx="0.5"></rect>
            <rect id="Rectangle" fill="#FFFFFF" x="74" y="33" width="7" height="1" rx="0.5"></rect>
            <rect id="Rectangle" fill="#FFFFFF" x="74" y="49" width="7" height="1" rx="0.5"></rect>
            <circle id="Oval" fill="#A1D3FF" cx="9" cy="13" r="5"></circle>
            <rect id="Rectangle" fill="#A1D3FF" x="4" y="24" width="10" height="3" rx="1"></rect>
            <rect id="Rectangle" fill="#A1D3FF" x="4" y="31" width="10" height="3" rx="1"></rect>
            <rect id="Rectangle" fill="#A1D3FF" x="4" y="38" width="10" height="3" rx="1"></rect>
            <rect id="Rectangle" fill="#A1D3FF" x="4" y="45" width="10" height="3" rx="1"></rect>
        </g>
    </g>
</svg>