<?xml version="1.0" encoding="UTF-8"?>
<svg width="96px" height="60px" viewBox="0 0 96 60" version="1.1" xmlns="http://www.w3.org/2000/svg" xmlns:xlink="http://www.w3.org/1999/xlink">
    <!-- Generator: Sketch 62 (91390) - https://sketch.com -->
    <title>icon-iconLayout4-dark</title>
    <desc>Created with Sketch.</desc>
    <g id="icon-iconLayout4-dark" stroke="none" stroke-width="1" fill="none" fill-rule="evenodd">
        <rect id="Rectangle" fill="#242424" fill-rule="nonzero" x="0" y="0" width="96" height="60"></rect>
        <rect id="Rectangle" fill="#676767" fill-rule="nonzero" x="22" y="10" width="52" height="8" rx="1"></rect>
        <rect id="Rectangle" fill="#676767" fill-rule="nonzero" x="14" y="26" width="8" height="8" rx="2"></rect>
        <rect id="Rectangle" fill="#676767" fill-rule="nonzero" x="14" y="40" width="8" height="8" rx="2"></rect>
        <rect id="Rectangle" fill="#676767" fill-rule="nonzero" x="29" y="26" width="8" height="8" rx="2"></rect>
        <rect id="Rectangle" fill="#676767" fill-rule="nonzero" x="29" y="40" width="8" height="8" rx="2"></rect>
        <rect id="Rectangle" fill="#676767" fill-rule="nonzero" x="44" y="26" width="8" height="8" rx="2"></rect>
        <rect id="Rectangle" fill="#676767" fill-rule="nonzero" x="59" y="26" width="8" height="8" rx="2"></rect>
        <rect id="Rectangle" fill="#676767" fill-rule="nonzero" x="74" y="26" width="8" height="8" rx="2"></rect>
        <rect id="Rectangle" fill="#676767" fill-rule="nonzero" x="44" y="40" width="8" height="8" rx="2"></rect>
        <rect id="Rectangle" fill="#676767" fill-rule="nonzero" x="59" y="40" width="8" height="8" rx="2"></rect>
        <rect id="Rectangle" fill="#676767" fill-rule="nonzero" x="74" y="40" width="8" height="8" rx="2"></rect>
    </g>
</svg>